<svg xmlns="http://www.w3.org/2000/svg" width="256" height="256"><path fill="#1976D2" fill-opacity=".016" fill-rule="evenodd" d="M0 128.004v128.004l128.25-.254 128.25-.254.254-127.75L257.008 0H0v128.004m.485.496c0 70.4.119 99.053.265 63.672.146-35.38.146-92.98 0-128C.604 29.153.485 58.1.485 128.5"/><path fill="#1976D2" fill-opacity=".311" fill-rule="evenodd" d="M0 128.004v128.004l128.25-.254 128.25-.254.254-127.75L257.008 0H0v128.004m.485.496c0 70.4.119 99.053.265 63.672.146-35.38.146-92.98 0-128C.604 29.153.485 58.1.485 128.5M162.361 6.782C161.375 7.403 143 40.245 143 41.385c0 .233 2.505-.934 5.567-2.593 4.994-2.704 7.433-5.619 7.433-8.883 0-.528-1.35-.262-3 .591-4.602 2.38-3.562-.036 1.152-2.675 2.284-1.279 4.521-3.343 4.972-4.587.74-2.039.577-2.201-1.652-1.642-3.415.858-3.091-.033.861-2.365 2.493-1.471 3.655-3.115 4.609-6.523 1.393-4.976 1.19-7.043-.581-5.926m-15.73 34.688c-4.484 2.32-6.49 4.117-8.5 7.613-1.447 2.517-5.012 6.891-7.921 9.721-6.024 5.858-8.22 10.259-8.188 16.414.045 8.724 6.453 16.782 13.346 16.782 1.448 0 2.632.45 2.632 1s-2.084 1-4.632 1c-4.742 0-10.536-2.691-12.201-5.666-.659-1.178-1.521-.446-3.918 3.328-4.248 6.69-6.249 14.279-6.249 23.706 0 10.317 2.104 18.609 8.027 31.64 5.597 12.311 7.436 20.452 6.724 29.758-1.015 13.259-8.689 27.254-19.166 34.952-3.347 2.459-6.242 4.623-6.434 4.809-.385.372 7.667-.186 15.11-1.048 12.279-1.421 27.672-9.04 31.738-15.709 3.304-5.42 2.216-18.191-3.711-43.55-.293-1.254-1.49-2.776-2.66-3.382-6.586-3.408-15.668-10.289-17.974-13.616-3.882-5.602-3.246-6.211 1.596-1.53 4.497 4.347 13.911 9.524 19.75 10.862 1.925.441 8.225.835 14 .875 9.14.064 10.979.371 14.2 2.373 2.034 1.264 4.639 3.819 5.787 5.677 2.701 4.371 6.683 5.335 11.767 2.851 4.704-2.298 4.613-3.655-.298-4.453-4.038-.657-10.456-6.403-10.456-9.362 0-2.296 1.572-1.817 3.452 1.052 2.97 4.534 5.477 6.433 8.489 6.433 1.618 0 3.219.45 3.559 1 1.22 1.974 4.264.983 5.376-1.75 2.996-7.37 3.222-16.738.517-21.483-.491-.862-4.718-4.823-9.393-8.803-4.675-3.98-11.2-9.83-14.5-12.999-3.3-3.17-7.8-6.661-10-7.758-2.2-1.096-5.859-3.954-8.131-6.35-2.273-2.396-5.788-5.367-7.811-6.601-3.408-2.079-3.893-2.134-6.569-.75-4.781 2.472-8.583 1.894-12.754-1.938l-3.735-3.432 4.276-3.668C136.337 75.555 139 71.361 139 68.09c0-1.105 1.107-3.04 2.461-4.3 1.934-1.8 5.539-9.246 5.539-11.441 0-.22-1.35.298-3 1.151s-3 2.016-3 2.585c0 .568-.45.755-1 .415-1.993-1.232-.911-2.609 3.549-4.521 3.93-1.685 4.887-2.716 7.042-7.589 1.371-3.101 2.362-5.71 2.201-5.798-.16-.088-2.933 1.207-6.161 2.878m5.669 17.28c-1.719 1.513-3.854 3.931-4.745 5.375-1.558 2.522-1.532 2.648.662 3.236 3.59.962 4.52.765 5.247-1.111.666-1.719 2.43-10.25 2.119-10.25-.087 0-1.565 1.237-3.283 2.75m-20.434 5.38c-1.405 1.854-3.074 4.353-3.71 5.554C126.738 72.364 126.627 79 128 79c.55 0 1-.787 1.001-1.75 0-.963 1.364-4.633 3.031-8.156 3.542-7.487 3.466-9.756-.166-4.964m-24.623 10.521c-3.926 1.935-8.859 6.786-10.933 10.75-1.114 2.13-.076 1.424 3.908-2.657 2.985-3.056 6.969-6.497 8.854-7.647 4.037-2.461 2.847-2.751-1.829-.446m33.145 28.935c1.359 5.763 9.835 9.791 13.305 6.321 1.251-1.251 5.753 1.207 6.692 3.653.677 1.766 3.613 1.92 3.62.19.003-.687-.743-3.336-1.656-5.885l-1.661-4.635-8.594-.476c-4.727-.262-9.449-.838-10.494-1.279-1.688-.715-1.823-.48-1.212 2.111m48.953 35.967c-.719 1.875.837 5.099 2.268 4.697 1.366-.383 1.058-5.528-.358-6-.688-.229-1.547.357-1.91 1.303m8.326-.886c-1.054 1.053-.776 6.333.333 6.333.55 0 1-.863 1-1.918s.273-2.63.607-3.5c.605-1.577-.675-2.181-1.94-.915M68.232 203c0 1.925.206 2.713.457 1.75.252-.963.252-2.537 0-3.5-.251-.963-.457-.175-.457 1.75"/><path fill="#1976D2" fill-opacity=".312" fill-rule="evenodd" d="M0 128.004v128.004l128.25-.254 128.25-.254.254-127.75L257.008 0H0v128.004m.485.496c0 70.4.119 99.053.265 63.672.146-35.38.146-92.98 0-128C.604 29.153.485 58.1.485 128.5M159.659 9.75c-1.304 2.063-6.122 10.725-10.708 19.25-10.595 19.697-14.187 25.32-17.834 27.917-4.01 2.855-8.823 10.381-9.607 15.022C120.023 80.741 127.09 92 134.101 92c1.757 0 2.759.418 2.399 1-.83 1.343-6.106 1.27-8.816-.122-1.201-.617-3.343-2.202-4.76-3.521-2.453-2.283-2.653-2.313-4.171-.628-2.972 3.3-6.584 11.743-7.719 18.04-2.057 11.423.404 24.517 7.63 40.595 7.729 17.199 8.851 28.012 4.284 41.287-3.629 10.547-11.562 20.344-20.948 25.867l-4.5 2.648 9.5-.556c16.091-.941 27.55-4.941 36.351-12.688 6.544-5.76 7.365-9.159 5.346-22.138-.88-5.656-2.558-14.431-3.73-19.499l-2.13-9.216-5.354-2.711c-6.043-3.059-13.927-9.45-15.663-12.696-.882-1.649-.277-1.39 2.549 1.09 8.689 7.626 19.559 11.219 33.995 11.236 8.274.01 10.49.364 13.75 2.196 2.137 1.201 3.886 2.504 3.886 2.894 0 .391 1.306 2.108 2.901 3.816 3.709 3.971 8.682 4.235 12.793.679 3.04-2.629 2.969-2.714-3.62-4.324-2.106-.515-4.579-2.263-6.421-4.539-4.201-5.19-2.285-6.112 2.179-1.048 3.557 4.033 5.936 5.052 13.165 5.636 2.166.175 2.72-.462 4.17-4.798.92-2.75 1.709-6.631 1.753-8.625.171-7.754-.854-9.682-8.805-16.558-4.188-3.623-11.303-10.126-15.811-14.452-4.507-4.326-8.701-7.865-9.32-7.865-2.027 0-10.087-6.131-11.162-8.491-.579-1.27-2.767-3.082-4.864-4.028-5.364-2.419-8.532-6.087-11.442-13.249-3.483-8.573-3.37-9.615.958-8.803 1.911.359 6.302 1.975 9.758 3.592 14.317 6.7 31.388 5.163 35.88-3.231.646-1.206-.633-.762-4.212 1.463-7.143 4.44-15.85 4.981-24.403 1.515-6.554-2.655-6.629-2.832-4.447-10.554.667-2.357.893-4.604.503-4.994-.724-.724-7.39 5.879-9.2 9.113-.767 1.371-1.664 1.627-3.815 1.087-2.793-.701-2.798-.716-.735-2.313C144.246 62.215 148.526 52 146.875 52c-.603 0-.203-.787.89-1.75C149.548 48.679 157 31.498 157 28.958c0-.69-.657-.677-2 .042-1.1.589-2 .841-2 .561 0-.28 1.287-1.175 2.861-1.989 2.303-1.191 3.491-3.229 6.099-10.461C164.98 8.736 165.225 6 162.955 6c-.51 0-1.993 1.688-3.296 3.75m-54.635 41.853c-7.932 2.132-13.584 5.763-21.656 13.915-10.335 10.437-15.287 21.62-15.344 34.649L68 105.835l-4.609 1.76c-3.808 1.454-5.327 1.568-8.741.657-2.273-.607-4.279-.957-4.457-.778-.663.662 4.414 4.807 7.525 6.144 1.77.76 4.932 1.382 7.027 1.382 7.847 0 10.791 5.195 7.177 12.661-3.265 6.745-8.293 9.639-16.693 9.609-3.701-.014-9.316-.712-12.479-1.552-3.162-.841-5.75-1.144-5.75-.674 0 1.378 6.078 5.62 12.007 8.38 9.32 4.338 19.286 2.815 28.743-4.392 2.888-2.201 5.246-3.671 5.241-3.267-.006.404-1.334 3.044-2.953 5.866-3.533 6.161-10.084 12.009-14.973 13.367-5.219 1.45-19.792 1.219-26.097-.414l-5.468-1.417 2.701 2.326c4.55 3.92 13.017 6.499 21.587 6.577 4.864.045 6.973.362 5.712.861-1.626.643-1.212.925 2.213 1.511 9.461 1.619 23.447-6.337 26.291-14.955.995-3.013.714-4.092-2.961-11.401-6.897-13.717-9.283-22.198-9.31-33.086-.051-20.112 8.362-36.933 21.767-43.525 4.298-2.113 14.919-2.689 21.5-1.164 2.532.586 3.085.521 2-.235-1.282-.894-.879-1.408 1-1.278.275.019.565-1.053.644-2.382.08-1.329-.306-2.416-.857-2.416-.55 0-.762-.622-.471-1.382 1.071-2.789-11.373-3.412-20.292-1.015m27.198 12.661C128.364 68.371 125.404 78 128 78c.55 0 1-.787 1.001-1.75 0-.963 1.331-4.562 2.957-8 1.627-3.437 2.83-6.25 2.674-6.25-.156 0-1.24 1.019-2.41 2.264m-24.179 6.944c-6.137 3.038-11.747 8.929-14.895 15.644-2.35 5.012-2.643 6.831-2.607 16.148.035 8.719.451 11.518 2.458 16.5l2.417 6 .741-5.63c1.572-11.941 9.87-30.566 16.801-37.707 2.924-3.013 3.863-4.885 4.272-8.513.506-4.487.432-4.65-2.103-4.649-1.445 0-4.633.993-7.084 2.207M177 81.93c-7.214 3.795-19.871 4.967-26.5 2.454-1.727-.655-1.825-.543-.72.818 2.193 2.699 9.404 3.95 15.416 2.675 5.48-1.163 14.185-5.067 15.292-6.858.813-1.315.672-1.278-3.488.911m-16.437 12.159c5.052 5.314 14.408 8.975 22.437 8.78l4.5-.109-4.5-.976c-6.461-1.401-14.224-4.54-19.5-7.886-5.85-3.71-6.6-3.661-2.937.191m-20.026 9.161c2.157 7.228 6.497 9.237 13.604 6.298 1.078-.445 2.852.385 5.17 2.42 1.941 1.705 3.795 2.669 4.12 2.143.325-.526-.201-3.065-1.17-5.644l-1.761-4.687-7.696-.326c-4.233-.179-8.591-.805-9.684-1.39-2.883-1.542-3.335-1.334-2.583 1.186m49.101 36.25c-1.074 2.8 1.321 5.994 2.755 3.674.682-1.105-.421-5.174-1.403-5.174-.427 0-1.035.675-1.352 1.5m7.754 1.073c-.365 1.454-.155 3.064.481 3.7.836.836 1.127.171 1.127-2.573 0-4.309-.688-4.791-1.608-1.127M50 170.447c0 .246 1.161 2.608 2.579 5.25 2.179 4.057 2.525 5.816 2.23 11.325-.58 10.841-6.971 16.792-18.309 17.046-4.856.109-4.905.14-1.714 1.06 1.807.521 3.033 1.356 2.724 1.856-.561.907 5.479 3 8.691 3.01 4.908.017 12.333-2.518 16.343-5.58L67 201.013l-.022 4.744c-.048 10.304-5.888 17.017-15.833 18.201l-5.645.672 5.95 1.814c6.887 2.1 17.797 1.733 23.864-.802 3.337-1.394 3.685-1.9 3.671-5.341-.009-2.091-.401-4.409-.872-5.152-.508-.802-.268-3.243.589-6 1.918-6.168 1.223-16.436-1.465-21.649-3.061-5.939-11.023-12.712-18.724-15.93-3.514-1.469-8.513-2.128-8.513-1.123m28 14.738c0 .322.697 2.1 1.549 3.95 1.545 3.353 1.548 3.355.93.365-.536-2.591-2.479-5.973-2.479-4.315"/><path fill="#1976D2" fill-opacity=".428" fill-rule="evenodd" d="M170.233 11.25c-1.105 1.364-7.598 16.413-11.543 26.75-4.93 12.92-4.489 12.178-6.576 11.061-2.401-1.285-3.105-.372-5.592 7.264-1.087 3.337-2.943 6.648-4.345 7.75L139.73 66h2.679c1.965 0 4.12-1.53 8.098-5.75 5.408-5.737 5.42-5.743 5.413-2.75-.004 1.65-.656 4.8-1.449 7-.792 2.2-1.448 4.06-1.456 4.134-.037.329 10.764 4.36 13.235 4.939 3.784.886 3.448-.485-1.241-5.065-3.986-3.891-3.989-3.901-2.034-5.982 2.048-2.179 7.118-19.4 11.007-37.384 1.74-8.045 1.997-10.892 1.151-12.75-1.19-2.612-3.31-3.106-4.9-1.142m-39.652 55.5c-2.055 3.149-4.913 12.793-3.335 11.25.759-.741 6.625-15 6.171-15-.214 0-1.49 1.688-2.836 3.75m-24.016.27c-6.046 2.361-12.893 8.839-16.229 15.354-3.248 6.345-5.606 17.785-4.859 23.576 1.009 7.824 1.754 11.487 2.71 13.338 1.201 2.324.003 6.621-1.281 4.594-.671-1.06-.883-.916-.906.618-.026 1.685-.196 1.763-1.081.5-.803-1.147-.891-.912-.375 1 1.324 4.9 8.314 18.926 14.271 28.635 7.629 12.435 9.857 19.816 8.275 27.423-1.176 5.663-6.406 15.942-8.11 15.942-.539 0-.98-1.394-.98-3.099 0-1.704-.72-4.616-1.6-6.471-1.407-2.965-1.778-3.195-3.069-1.904-.939.939-1.219 2.28-.777 3.721.381 1.239-.826.025-2.681-2.698-1.935-2.841-5.292-6.058-7.873-7.546-5.614-3.237-23.102-10.234-23.809-9.527-.289.288-.05.524.53.524.58 0 3.243 1.505 5.917 3.344 5.92 4.07 14.237 7.852 15.523 7.057 1.696-1.049 10.54 8.836 11.721 13.099 2.649 9.57-.263 18.96-8.052 25.963-6.586 5.922-13.013 7.858-24.513 7.386l-8.493-.349 6.344 6c3.49 3.3 9.707 8.025 13.817 10.5 7.264 4.375 7.694 4.498 15.493 4.413 8.185-.089 17.938-2.329 22.144-5.085 1.289-.844 3.323-3.121 4.52-5.059 2.922-4.727 8.234-6.886 20.201-8.21 15.451-1.709 23.097-6.265 27.79-16.559 2.263-4.965 2.415-14.903.344-22.5-3.055-11.207 1.287-21.276 9.767-22.652 3.129-.508 3.992-.088 8.298 4.037 9.965 9.549 20.208 11.597 30.359 6.072 9.768-5.316 12.366-11.226 8.049-18.307l-2.042-3.349 5.047.349c2.775.193 5.046.071 5.046-.269-.001-.341-5.063-5.515-11.251-11.498l-11.25-10.878-.237 4.497c-.367 6.958-2.398 14.811-4.269 16.503-1.514 1.371-2 1.373-4.593.02-1.596-.832-3.892-1.515-5.104-1.519-1.363-.004-3.428-1.531-5.417-4.006-3.265-4.063-5.722-5.44-4.013-2.25 2.224 4.151 5.89 6.956 9.938 7.603 2.564.41 4.195 1.204 4.195 2.044 0 2.22-4.616 4.603-8.918 4.603-3.448 0-4.421-.54-7.193-3.989-5.535-6.887-6.892-7.388-21.889-8.078-7.425-.341-13.607-.546-13.738-.456-.131.091.866 4.514 2.214 9.828 5.451 21.488 6.649 33.523 3.911 39.292-4.629 9.754-25.628 18.474-44.202 18.353l-7.685-.05 4.138-2.008C114.365 208.23 125 190.621 125 174.557c0-6.542-4.327-23.02-7.247-27.593-.864-1.355-2.816-6.289-4.336-10.964-2.362-7.265-2.774-10.244-2.84-20.5-.067-10.503.21-12.624 2.222-17 4.545-9.886 8.165-13.643 9.582-9.949.726 1.891 9.045 5.711 11.411 5.239 1.113-.223.056-1.146-3.037-2.652-3.143-1.531-5.625-3.717-7.35-6.475-1.432-2.29-2.329-3.325-1.993-2.302.448 1.365.217 1.711-.862 1.296-2.3-.882-9.233 8.001-11.788 15.106-1.444 4.012-2.704 6.09-3.508 5.781-.69-.265-1.26.067-1.268.737-.007.671-.303 2.302-.657 3.625-.452 1.688-.298 2.193.513 1.691.738-.455 1.158.053 1.158 1.403 0 1.165-.39 1.877-.866 1.583-1.021-.631-.498 5.852 1.042 12.917.599 2.75 3.731 10.994 6.96 18.32 7.523 17.071 8.193 19.913 7.63 32.412-.524 11.645-2.321 16.744-8.987 25.49-3.62 4.751-12.512 11.878-13.539 10.851-1.13-1.129 1.55-5.426 7.276-11.665 8.04-8.761 9.969-13.996 9.215-25.004-.572-8.348-.337-7.804-13.105-30.404-7.288-12.9-9.507-18.949-10.803-29.45-2.409-19.511 1.07-32.273 11.305-41.475C105.691 71.472 113.279 68 117.682 68c.725 0 1.318-.675 1.318-1.5 0-2.139-6.3-1.875-12.435.52m80.76 3.754c-3.133 4.238-11.558 8.346-18.386 8.965-6.971.632-15.17-1.929-23.798-7.434-2.948-1.881-5.568-3.211-5.824-2.956-.255.256 1.065 3.769 2.934 7.808C145.417 84 151.425 91 154.132 91c.584 0 3.032 2.191 5.439 4.868 2.407 2.677 5.851 5.445 7.653 6.15 1.802.705 6.426 4.301 10.276 7.991 3.85 3.69 10.6 9.737 15 13.438 7.324 6.159 8.296 6.679 11.5 6.152 1.925-.318 4.541-.582 5.812-.588l2.313-.011-2.613-4.801c-1.438-2.641-5.628-8.044-9.313-12.006l-6.699-7.204-4.74 1.62c-4.762 1.629-13.083 1.295-14.237-.572-.288-.466 1.248-.609 3.413-.319 2.166.291 5.653.167 7.751-.274 3.742-.788 3.692-.816-2.687-1.529-9.261-1.036-17.505-4.42-22.198-9.113-4.139-4.139-4.496-5.779-.832-3.818 1.325.709 4.122.903 7.336.509 5.101-.626 5.266-.563 9.194 3.517 4.577 4.754 8.35 6.99 11.795 6.99 2.8 0 4.679-1.889 7.709-7.75 2.017-3.901 3.045-4.739 5.321-4.343 1.877.326-.917-4.779-5.559-10.157-5.338-6.183-6.321-6.727-7.195-3.975-1.029 3.243-8 9.51-13.28 11.938-4.842 2.227-5.801 2.331-13.58 1.477-9.133-1.004-12.283-2.502-15.027-7.147-2.182-3.695-1.723-3.731 6.253-.49 11.025 4.479 21.075 3.116 30.605-4.153 3.3-2.517 7.132-8.059 6.211-8.981-.217-.217-1.31.843-2.428 2.355m-82.761 25.933c-.542 1.425-.428 1.54.56.56.684-.679.991-1.486.683-1.793-.308-.308-.867.247-1.243 1.233M80.32 104c0 3.575.182 5.037.403 3.25.222-1.787.222-4.713 0-6.5-.221-1.787-.403-.325-.403 3.25m59.684-2.14c.011 1.98 4.392 7.344 6.746 8.26 2.169.845 3.365.724 5.661-.57 2.878-1.623 2.953-1.601 6.635 1.995 2.048 2 3.954 3.258 4.235 2.796.281-.463-.332-3.091-1.361-5.841l-1.872-5-4.965.343c-2.731.188-7.241-.325-10.024-1.141-2.782-.816-5.057-1.195-5.055-.842m-85.901 12.41c3.723 5.44 9.209 10.802 13.111 12.817 3.665 1.892 3.727 1.891 4.75-.019 1.423-2.659 1.302-7.613-.214-8.811-.687-.543-3.217-1.237-5.622-1.543-2.404-.306-6.591-1.708-9.304-3.115l-4.932-2.559 2.211 3.23m27.055-.27c0 1.375.227 1.938.504 1.25.278-.687.278-1.812 0-2.5-.277-.687-.504-.125-.504 1.25m.921 4.583c.048 1.165.285 1.402.604.605.289-.722.253-1.585-.079-1.917-.332-.332-.568.258-.525 1.312m41.272 20.549c2.4 3.663 7.383 7.108 8.25 5.704.437-.706.265-.871-.446-.431-.635.392-1.163.349-1.173-.096-.01-.445-1.87-2.347-4.133-4.228-3.445-2.861-3.852-3.015-2.498-.949M190 140.941c0 1.068.45 2.219 1 2.559.567.351 1-.49 1-1.941 0-1.407-.45-2.559-1-2.559s-1 .873-1 1.941m7.711.058c-.288 1.099-.115 2.251.383 2.559.498.308.906-.592.906-1.999 0-3.064-.57-3.312-1.289-.56M43 141.833c0 1.3 5.322 8.272 8.818 11.553 2.848 2.673 3.46 2.835 8.285 2.195 2.865-.38 6.377-1.304 7.803-2.054 3.457-1.815 11.298-10.088 8.594-9.066-9.484 3.584-20.209 3.272-28.25-.822-2.888-1.47-5.25-2.283-5.25-1.806m-2.056 20.44c1.831 2.549 4.344 5.588 5.585 6.754l2.257 2.12 3.674-3.673c2.02-2.021 3.531-3.761 3.357-3.867-.175-.106-3.467-1.122-7.317-2.259-3.85-1.136-7.874-2.436-8.942-2.888-1.515-.641-1.21.198 1.386 3.813m22.645 41.622c-3.995 4.187-11.205 6.426-19.078 5.925l-6.306-.402 4.276 5.541c6.791 8.801 7.635 9.356 12.31 8.097 5.605-1.509 9.882-6.235 11.274-12.457.627-2.804.982-6.147.788-7.427-.351-2.317-.368-2.313-3.264.723m17.767 29.142c-1.552 3.457-1.842 5.077-1.05 5.869 1.596 1.596 3.095 1.353 6.065-.984 2.589-2.036 5.879-6.812 3.813-5.536-.558.345-2.29-.442-3.849-1.749l-2.835-2.376-2.144 4.776"/></svg>