<svg xmlns="http://www.w3.org/2000/svg" width="256" height="256"><path fill="#1976D2" fill-opacity=".016" fill-rule="evenodd" d="M0 128.004v128.004l128.25-.254 128.25-.254.254-127.75L257.008 0H0v128.004m.485.496c0 70.4.119 99.053.265 63.672.146-35.38.146-92.98 0-128C.604 29.153.485 58.1.485 128.5"/><path fill="#1976D2" fill-opacity=".319" fill-rule="evenodd" d="M0 128.004v128.004l128.25-.254 128.25-.254.254-127.75L257.008 0H0v128.004m.485.496c0 70.4.119 99.053.265 63.672.146-35.38.146-92.98 0-128C.604 29.153.485 58.1.485 128.5m162.777-99.25c-.54.688-2.902 4.85-5.249 9.25-2.346 4.4-5.581 10.343-7.188 13.207l-2.922 5.207 4.563-2.551c4.326-2.418 6.534-4.892 6.534-7.32 0-.639-1.034-.412-2.5.549-1.468.962-2.5 1.188-2.5.549 0-.599 1.337-1.781 2.97-2.626 1.634-.844 3.473-2.474 4.086-3.62 1.011-1.889.897-2.023-1.22-1.43-2.073.581-1.979.339.842-2.155 1.749-1.546 3.624-4.497 4.17-6.56.989-3.742.275-4.867-1.586-2.5m-12.255 27.483c-2.846 1.456-5.256 3.667-6.572 6.033-1.143 2.053-4.383 6.068-7.2 8.922-5.51 5.582-6.973 9.566-5.802 15.808.869 4.629 4.175 8.281 8.986 9.924 3.48 1.189 3.674 1.416 1.734 2.031-2.79.886-8.387-.947-10.702-3.505-1.773-1.959-1.808-1.952-3.663.788-3.589 5.3-4.977 9.818-5.454 17.766-.562 9.349 1.298 17.276 7.083 30.189 2.017 4.504 4.096 10.804 4.619 14 2.27 13.87-4.657 29.841-16.488 38.019l-5.048 3.489 7.792-.644c17.27-1.427 30.786-8.745 32.828-17.774.708-3.131-1.213-17.256-3.684-27.095-1.594-6.343-1.891-6.771-6.215-8.923-4.82-2.4-13.221-9.915-13.221-11.827 0-.628 1.667.322 3.704 2.111 6.762 5.937 13.556 8.327 24.796 8.723 12.033.423 14.349 1.216 18.442 6.31 3.516 4.375 6.941 5.093 10.937 2.294 1.822-1.276 2.032-1.814.973-2.485-.744-.471-2.324-.863-3.513-.872-2.443-.017-7.359-5.297-7.301-7.842.026-1.176.991-.593 3.25 1.962 2.913 3.297 5.743 4.616 11.094 5.17 2.692.279 4.871-6.345 4.344-13.203-.393-5.114-.7-5.64-5.821-9.977-2.973-2.518-8.555-7.549-12.405-11.179-3.85-3.63-9.117-7.81-11.704-9.288-2.587-1.479-5.323-3.572-6.079-4.652-.757-1.08-3.121-3.148-5.254-4.596-3.107-2.108-4.232-2.411-5.657-1.521-3.105 1.939-8.293 1.316-11.16-1.341-3.285-3.045-3.309-3.925-.144-5.367 2.935-1.337 6.489-6.74 6.494-9.872.002-1.205.461-2.474 1.02-2.819.559-.346.761-1.042.448-1.548-.312-.505.03-.69.761-.409.865.332 1.912-1.066 3.004-4.013l1.676-4.522-3.045 1.575c-1.675.866-3.273 1.348-3.55 1.07-.277-.277 1.283-1.415 3.467-2.529 2.916-1.488 4.413-3.133 5.639-6.195.917-2.293 1.536-4.24 1.376-4.326-.161-.087-2.314.876-4.785 2.14m3.243 15.622c-3.894 4.451-4.06 5.645-.785 5.645 2.901 0 4.796-2.934 4.347-6.729l-.312-2.63-3.25 3.714M137.723 77.2c-2.681 4.136-3.678 9.8-1.723 9.8.55 0 1-.677 1-1.505 0-.828 1.125-3.837 2.5-6.687 2.799-5.802 2.801-5.808 1.723-5.808-.427 0-2.002 1.89-3.5 4.2M118.5 83.837c-3.521 2.147-9.5 8.709-9.5 10.426 0 .656 1.426-.537 3.168-2.65 1.742-2.114 4.96-5.142 7.15-6.728 4.419-3.202 3.869-3.906-.818-1.048m26.641 21.755 1.79 3.592c1.746 3.507 6.125 5.392 8.978 3.865 2.395-1.282 5.387-.12 6.986 2.713.686 1.216 1.299 1.423 2.041.689.748-.738.586-2.259-.547-5.143l-1.609-4.095-6.64-.501c-3.652-.275-7.723-.844-9.046-1.264-1.378-.437-2.213-.375-1.953.144m41.245 30.845c-.736 1.917.182 4.563 1.583 4.563 1.328 0 1.349-4.685.024-5.504-.554-.343-1.277.081-1.607.941m6.279.737c-.748 2.858.46 4.756 1.437 2.26 1.053-2.689 1.059-4.434.015-4.434-.486 0-1.14.978-1.452 2.174M87.195 189.5c.02 1.65.244 2.204.498 1.231.254-.973.237-2.323-.037-3-.274-.677-.481.119-.461 1.769"/><path fill="#1976D2" fill-opacity=".298" fill-rule="evenodd" d="M0 128.004v128.004l128.25-.254 128.25-.254.254-127.75L257.008 0H0v128.004m.485.496c0 70.4.119 99.053.265 63.672.146-35.38.146-92.98 0-128C.604 29.153.485 58.1.485 128.5m162.77-100.25c-.545.688-3.142 5.3-5.772 10.25-7.882 14.832-16.608 29.5-17.552 29.5-.486 0-2.741 2.349-5.01 5.219-4.01 5.073-4.115 5.398-3.724 11.531.346 5.433.828 6.737 3.471 9.38 1.688 1.688 4.591 3.428 6.451 3.867l3.381.798-4.173.103c-3.168.077-4.945-.547-7.373-2.59-3.128-2.633-3.232-2.649-4.655-.75-5.065 6.759-5.8 9.562-5.755 21.942.047 12.804-.275 11.534 7.441 29.363 8.471 19.576 2.409 40.259-14.985 51.124l-3.5 2.186 8.5-.511c4.675-.281 10.75-1.206 13.5-2.055 7.138-2.204 15.539-7.528 18.316-11.607 2.133-3.133 2.318-4.215 1.77-10.322-.523-5.816-3.112-19.028-5.147-26.265-.327-1.164-2.526-3.029-4.976-4.218-4.649-2.259-12.463-8.773-12.463-10.389 0-.529 1.877.645 4.171 2.608 6.318 5.408 13.203 7.586 23.98 7.586 10.307 0 15.088 1.866 18.062 7.049 1.419 2.472 2.325 2.951 5.586 2.951 2.607 0 4.482-.653 5.682-1.979 1.933-2.136 1.82-2.242-3.665-3.44-2.706-.591-7.573-6.158-6.404-7.326.346-.346 1.858.791 3.359 2.528 1.501 1.736 4.661 3.8 7.023 4.585 4.213 1.401 4.325 1.38 5.99-1.161 1.069-1.632 1.83-5.227 2.057-9.721l.36-7.132-12.68-11.427c-6.974-6.285-14.299-12.404-16.278-13.599-1.98-1.194-4.981-3.566-6.671-5.27-1.69-1.704-4.636-4.113-6.548-5.352-1.912-1.24-4.402-3.626-5.532-5.304-2.455-3.643-5.07-11.157-4.19-12.037.344-.344 2.554.074 4.912.93 2.357.856 6.986 2.537 10.286 3.737 9.958 3.621 21.411 1.74 24.495-4.022.941-1.759.635-1.698-2.642.525-2.039 1.384-4.773 2.783-6.076 3.11-3.527.886-12.277-.174-16.42-1.988l-3.643-1.594 1.349-3.782c.742-2.079 1.369-4.59 1.393-5.578.042-1.729-.047-1.729-2.356 0-1.32.988-3.233 3.033-4.25 4.544-1.099 1.632-2.764 2.748-4.1 2.75-2.74.004-2.896-1.112-.376-2.686 1.031-.644 2.191-2.433 2.578-3.975.387-1.543 1.782-5.162 3.1-8.044 1.318-2.881 2.683-6.38 3.033-7.775.35-1.395 1.037-2.783 1.526-3.085.489-.303.889-1.243.889-2.09 0-.847.655-2.958 1.455-4.691C163.353 38.372 166 30.883 166 28.963c0-2.231-1.28-2.563-2.745-.713m-49.998 37.869c-5.858 2.252-14.779 9.873-19.373 16.55C89.815 88.583 87 97.186 87 103.708c0 5.265-.088 5.431-3.661 6.924-2.799 1.169-4.566 1.3-7.5.555-2.112-.536-3.839-.82-3.839-.632 0 .189 1.568 1.539 3.485 3.002 2.253 1.717 5.335 2.885 8.713 3.3 4.238.521 5.504 1.136 6.688 3.248 1.32 2.352 1.267 2.981-.549 6.5-4.111 7.963-11.868 10.219-24.168 7.029l-5.266-1.366 2.218 2.361c1.22 1.299 4.48 3.488 7.245 4.866 8.15 4.062 16.164 3.037 24.197-3.095 4.215-3.217 4.548-3.321 3.892-1.209-1.008 3.243-3.844 7.066-7.861 10.592-3.83 3.363-10.827 5.265-17.094 4.647-6.678-.658-11.229-1.39-13.163-2.115-1.602-.601-1.666-.479-.496.96 2.245 2.762 11.793 5.743 18.723 5.847 3.53.053 6.203.446 5.939.874-.949 1.535 3.747 1.833 8.123.516 5.76-1.733 11.078-5.824 13.109-10.082 1.571-3.294 1.524-3.561-2.05-11.651-2.011-4.553-4.329-10.221-5.15-12.595-5.245-15.162-.945-35.021 9.71-44.842 5.819-5.364 10.262-6.757 19.167-6.011 3.897.327 6.547.262 5.889-.145-.788-.487-.878-1.24-.264-2.212 1.443-2.282 1.153-2.968-1.287-3.044-2.147-.067-2.158-.11-.25-.93 1.355-.582-.419-.865-5.5-.878-5.154-.012-9.14.612-12.743 1.997m24.976 10.573c-2.167 3.066-3.891 9.318-2.562 9.291.864-.018 5.498-11.148 4.893-11.753-.19-.19-1.239.918-2.331 2.462m-19.003 4.423c-5.815 2.879-10.973 9.194-12.887 15.779-1.964 6.755-1.396 17.934 1.2 23.606l1.83 4 .361-3c1.148-9.532 7.791-24.739 13.663-31.275 4.179-4.651 5.439-11.225 2.152-11.224-1.127 0-3.97.952-6.319 2.114m55.06 9.453c-4.752 2.08-13.591 2.871-17.367 1.555-1.786-.623-3.468-.911-3.739-.641-.746.746 6.427 3.518 9.102 3.518 3.34 0 11.886-2.665 14.231-4.438 2.415-1.825 1.954-1.824-2.227.006m-10.124 9.74c3.969 3.86 11.745 6.751 17.766 6.606 2.93-.07 2.282-.418-3.624-1.944-6.897-1.783-9.836-3.05-15.308-6.603-1.584-1.028-1.157-.317 1.166 1.941M146 106.39c0 .737.933 2.526 2.073 3.975 2.163 2.75 5.621 3.404 8.855 1.674 1.384-.741 2.327-.397 4.108 1.5 3.809 4.054 5.144 3.204 3.2-2.039l-1.667-4.5h-5.72c-3.145 0-6.873-.439-8.284-.975-1.963-.746-2.565-.661-2.565.365M186.5 137c-.729 1.18.217 3 1.559 3 .518 0 .941-.9.941-2 0-2.109-1.455-2.691-2.5-1m6.695 1.5c.02 1.65.244 2.204.498 1.231.254-.973.237-2.323-.037-3-.274-.677-.481.119-.461 1.769M72 162.476c0 .262.898 1.949 1.996 3.75 1.395 2.287 1.998 5.043 2 9.142.004 5.45-.263 6.134-3.749 9.62-2.662 2.663-4.999 3.963-8.043 4.478l-4.29.724 2.196 1.905c4.262 3.697 16.092 1.882 21.626-3.317L86 186.651v4.44c0 8.349-5.914 14.903-13.45 14.907-2.19.002-2.659.293-1.822 1.13 1.633 1.633 14.086 2.285 18.772.984 6.087-1.691 6.503-2.165 5.563-6.331-.565-2.508-.348-5.387.686-9.106 3.09-11.099-.976-20.314-11.869-26.901C78.629 162.6 72 160.759 72 162.476"/><path fill="#1976D2" fill-opacity=".425" fill-rule="evenodd" d="M170.085 33.101c-1.097 1.804-4.368 9.267-7.269 16.584-4.196 10.586-5.607 13.199-6.904 12.787-2.044-.649-3.48 1.09-4.381 5.302-.385 1.801-1.747 4.518-3.027 6.039l-2.327 2.765 2.411.2c1.327.11 2.412-.23 2.412-.754 0-1.363 6.006-8.024 7.234-8.024.99 0 .646 3.755-.797 8.694-.531 1.816-.045 2.443 2.818 3.639 1.902.795 4.985 1.769 6.852 2.164l3.393.719-3.335-3.493c-3.319-3.476-3.327-3.509-1.674-6.705 2.098-4.058 9.509-33.361 9.509-37.6 0-1.745-.657-3.718-1.46-4.385-1.201-.997-1.815-.63-3.455 2.068M138.01 77.484c-1.184 1.916-2.009 4.356-1.832 5.421.212 1.275 1.047.085 2.442-3.484 1.167-2.981 1.991-5.421 1.832-5.421-.159 0-1.258 1.568-2.442 3.484m-20.51.387c-5.656 2.584-11.877 9.755-14.059 16.208-2.577 7.621-2.514 18.868.157 27.827.508 1.704.379 2.198-.44 1.691-.645-.398-1.194-.135-1.239.594-.045.72-.739-.041-1.543-1.691l-1.462-3 .624 3c.91 4.376 8.261 19.981 12.955 27.5 5.656 9.061 6.507 11.339 6.507 17.425 0 5.584-1.92 11.387-5.111 15.443-1.865 2.372-1.889 2.375-1.889.235 0-1.192-.675-3.783-1.5-5.757-1.282-3.068-1.725-3.405-3.041-2.312-1.294 1.074-2.056.79-4.75-1.766-3.458-3.28-6.614-5.064-14.301-8.084-8.712-3.423-8.963-3.461-5.189-.788 5.137 3.638 14.93 8.63 15.834 8.071 1.382-.854 6.843 6.46 7.521 10.074 1.771 9.443-2.083 18.329-9.951 22.94-5.299 3.105-13.572 4.626-19.386 3.562-2.33-.426-4.237-.525-4.237-.22 0 1.332 10.064 9.625 16.058 13.231 5.513 3.317 7.432 3.946 12.04 3.946 6.212 0 15.82-2.245 19.263-4.501 1.269-.832 2.898-2.614 3.618-3.96 1.882-3.517 7.292-5.717 16.288-6.624 16.837-1.697 26.029-11.076 24.348-24.843-.307-2.515-.855-7.821-1.216-11.792l-.658-7.221 3.529-3.529c1.942-1.942 4.537-3.53 5.768-3.53 1.231 0 4.228 1.834 6.661 4.076 2.432 2.242 5.955 4.717 7.829 5.5 7.466 3.12 17.639.579 22.949-5.731 2.873-3.414 3.097-5.222 1.116-9.019-1.367-2.62-1.323-2.691 2.185-3.521l3.581-.847-8.252-7.979c-10.145-9.808-10.877-10.27-10.327-6.525.48 3.271-2.272 13.614-3.888 14.613-.596.368-2.052.201-3.237-.371-1.185-.572-3.369-1.303-4.852-1.624-1.542-.334-3.454-1.865-4.465-3.578-1.922-3.252-4.063-4.216-2.38-1.072 1.579 2.951 6.044 6.078 8.677 6.078 2.948 0 3.136 2.517.302 4.033-4.513 2.416-7.846 1.522-12.263-3.288-4.524-4.928-8.895-6.489-14.972-5.349-1.814.341-5.458.216-8.098-.278l-4.798-.896.512 2.639c.281 1.451 1.67 8.039 3.086 14.639 3.57 16.636 3.47 21.435-.541 26.003-6.674 7.601-19.609 12.514-32.841 12.474-7.514-.023-7.519-.024-4.35-1.587 8.691-4.286 16.042-14.145 18.903-25.351 2.146-8.409.831-17.005-4.521-29.535-5.397-12.637-6.375-16.743-6.433-27.004-.041-7.31.383-9.972 2.257-14.179 1.269-2.848 3.148-5.94 4.177-6.87 1.768-1.601 2.038-1.55 4.984.928 2.049 1.724 4.2 2.581 6.288 2.505 2.151-.079 2.529-.277 1.173-.617-3.368-.843-7.137-4.035-8.837-7.485-.89-1.805-1.628-2.782-1.64-2.172-.013.611-1.667 2.854-3.677 4.984-3.757 3.984-7.285 10.562-7.324 13.656-.012.963-.439 1.75-.949 1.75-.509 0-1.165-.787-1.458-1.75-.292-.963-.382 2.75-.2 8.25.351 10.645 1.164 13.414 9.242 31.5 3.522 7.886 3.798 9.186 3.82 18 .02 8.339-.319 10.233-2.778 15.5-2.923 6.262-9.311 13.667-13.849 16.054-2.405 1.265-2.607 1.233-2.192-.352.251-.961 2.68-4.211 5.398-7.224 5.033-5.58 8.964-13.849 8.92-18.766-.053-5.827-2.287-12.082-7.398-20.712-11.287-19.06-12.97-24.224-13.034-40-.038-9.502.268-11.633 2.248-15.652 4.072-8.265 14.055-15.812 20.958-15.842.688-.003 1.25-.456 1.25-1.006 0-1.639-7.2-1.093-11.5.871m67.168 2.513C182.417 83.82 173.455 88 168.341 88c-5.089 0-13.636-3.029-18.339-6.498-1.865-1.376-3.747-2.502-4.182-2.502-.923 0 2.486 9.011 4.669 12.343.821 1.253 3.189 3.232 5.261 4.396 2.073 1.165 4.712 3.395 5.865 4.955 1.154 1.56 3.846 3.729 5.982 4.821 2.137 1.092 7.039 4.987 10.894 8.655 12.868 12.246 16.674 14.999 19.884 14.382 1.581-.304 3.748-.552 4.814-.552 1.884 0 1.878-.107-.196-3.75-1.175-2.062-4.502-6.399-7.395-9.636l-5.26-5.885-4.99 1.278c-3.665.94-5.767.997-7.919.215-2.749-.999-2.591-1.078 2.571-1.293 3.472-.144 4.394-.383 2.5-.647-9.685-1.352-18.258-5.438-21.373-10.188-1.556-2.372-1.545-2.388.797-1.134 1.451.776 4.011 1.047 6.577.695 3.749-.514 4.512-.248 7.1 2.474 6.694 7.042 11.289 7.534 15.134 1.621 1.52-2.338 3.381-4.734 4.137-5.326 1.896-1.486.82-4.086-3.901-9.424-3.48-3.934-4.108-4.287-4.996-2.803-2.537 4.241-6.386 7.824-10.594 9.861-7.592 3.675-20.379 1.647-23.947-3.799-.877-1.338-1.422-2.604-1.212-2.814.21-.21 3.63.747 7.6 2.128 7.998 2.781 11.731 2.616 18.678-.825 5.023-2.488 7.32-4.5 9.128-7.996 1.749-3.382 1.162-3.607-.96-.368m-68.104 22.323c-.542 1.425-.428 1.54.56.56.684-.679.991-1.486.683-1.793-.308-.308-.867.247-1.243 1.233M97.32 108c0 3.575.182 5.037.403 3.25.222-1.787.222-4.713 0-6.5-.221-1.787-.403-.325-.403 3.25m50.104.854c1.855 3.586 5.892 5.054 8.84 3.213 1.683-1.051 2.37-.833 4.838 1.531 3.558 3.408 4.627 2.584 2.792-2.151-1.338-3.454-1.615-3.612-6.894-3.933-3.025-.184-6.78-.66-8.344-1.056l-2.844-.722 1.612 3.118m-30.345 5.729c.048 1.165.285 1.402.604.605.289-.722.253-1.585-.079-1.917-.332-.332-.568.258-.525 1.312m-41.515 1.667c7.749 9.304 12.965 13.101 14.553 10.594.469-.739.859-2.591.868-4.115.016-3.025-1.03-3.678-9.261-5.783-2.626-.671-5.015-1.609-5.309-2.083-.293-.475-1.026-.863-1.629-.863s-.253 1.013.778 2.25m22.594.75c0 1.375.227 1.938.504 1.25.278-.687.278-1.812 0-2.5-.277-.687-.504-.125-.504 1.25m36.077 21.386c2.055 1.988 4.267 3.614 4.917 3.614.65 0 .994-.138.765-.307L135 138.079l-4.5-3.306 3.735 3.613m52.765-.445c0 1.132.45 2.059 1 2.059s1-.648 1-1.441-.45-1.719-1-2.059c-.55-.34-1 .309-1 1.441m6.195.559c.02 1.65.244 2.204.498 1.231.254-.973.237-2.323-.037-3-.274-.677-.481.119-.461 1.769m-126.21 1.473c.649 1.212 2.77 3.964 4.714 6.115 2.797 3.096 4.246 3.912 6.949 3.912 6.023 0 13.833-4.343 16.413-9.126.745-1.382.317-1.335-2.842.313-6.089 3.177-15.235 2.103-25.566-3-.466-.23-.316.573.332 1.786M66 157c2.302 2.75 4.457 5 4.788 5 .332 0 1.86-1.205 3.396-2.677l2.794-2.676-7.239-2.31c-3.981-1.271-7.393-2.316-7.582-2.324-.189-.007 1.541 2.237 3.843 4.987m14.78 34.314c-3.906 2.43-5.833 2.947-11.185 2.997-7.409.07-7.429.238-.887 7.611 3.837 4.323 3.917 4.357 7.552 3.157 4.47-1.475 8.44-5.965 9.293-10.509 1.13-6.022.435-6.496-4.773-3.256m18.001 20.24c-.305 1.07-.825 2.621-1.157 3.446-.332.825-.196 2.139.301 2.921.771 1.211 1.281 1.174 3.454-.25 1.403-.919 2.979-2.472 3.503-3.45.808-1.509.547-1.76-1.715-1.651-1.58.077-2.904-.501-3.249-1.417-.476-1.265-.683-1.193-1.137.401"/></svg>