<svg xmlns="http://www.w3.org/2000/svg" width="256" height="256"><path fill="#1976D2" fill-opacity=".016" fill-rule="evenodd" d="M0 128.004v128.004l128.25-.254 128.25-.254.254-127.75L257.008 0H0zm.485.496c0 70.4.119 99.053.265 63.672s.146-92.98 0-128S.485 58.1.485 128.5"/><path fill="#1976D2" fill-opacity=".398" fill-rule="evenodd" d="M0 128.004v128.004l128.25-.254 128.25-.254.254-127.75L257.008 0H0zm.485.496c0 70.4.119 99.053.265 63.672s.146-92.98 0-128S.485 58.1.485 128.5m75.079-60.207c.376.986.935 1.541 1.243 1.233s.001-1.114-.683-1.793c-.988-.98-1.102-.865-.56.56m19.589 2.425-2.347.447 2.184 2.325 2.185 2.325-5.338 4.239c-2.935 2.331-7.137 5.063-9.337 6.07-4.444 2.035-10.5 2.481-10.5.772 0-.607-1.591.293-3.535 2S64.496 92 63.965 92s-.965.406-.965.902C63 94.568 69.238 96 76.49 96c6.061 0 8.178-.494 13.477-3.141 4.958-2.478 6.84-4.101 8.909-7.684C103.163 77.753 108.26 73 111.932 73c7.524 0 12.269 6.272 11.977 15.834-.183 6.019 2.609 17.954 4.952 21.166 4.857 6.661 13.072 8.78 20.921 5.398l3.718-1.602-5.305-1.775c-8.523-2.852-12.599-7.893-15.151-18.738-3.835-16.299-20.051-25.955-37.891-22.565m-15.069 4.693c-1.246 1.326-2.112 3.133-1.925 4.017.286 1.345.95 1.172 4.085-1.066 2.923-2.087 3.499-2.967 2.627-4.017-1.537-1.853-2.179-1.71-4.787 1.066m29.452 6.783c-.903 1.268-2.926 4.393-4.496 6.944C100.199 97.005 89.128 103 79.44 103h-4.49l-3.475 7.625c-3.957 8.682-4.345 13.436-1.48 18.134 5.939 9.741 21.184 10.7 32.161 2.024 5.329-4.213 7.9-4.328 8.674-.389.387 1.963-5.86 8.315-10.677 10.857l-3.317 1.75.591 7.25c.325 3.987.85 12.537 1.166 19.001.658 13.461 1.455 14.748 9.13 14.748 6.616 0 8.277-2.287 8.277-11.393 0-5.819.337-7.522 1.582-8 2.982-1.144 20.961-.664 22.218.593.713.713 1.2 4.15 1.2 8.477 0 6.674.209 7.414 2.52 8.928 2.808 1.84 10.766 1.506 12.817-.538.662-.659 1.456-6.203 1.842-12.863.373-6.437.985-14.697 1.36-18.355.692-6.756-.249-11.568-2.962-15.142-1.292-1.703-1.549-1.666-5.108.75-9.648 6.547-25.053.384-29.886-11.957-.862-2.2-1.974-8.771-2.472-14.602-.503-5.875-1.599-11.941-2.46-13.605-1.236-2.391-1.333-3.718-.478-6.504 2.037-6.64-3.117-12.539-6.637-7.595m-15.97 26.134c-2.089 1.528-2.398 5.965-.569 8.169 1.717 2.068 6.345 1.887 8.348-.326 4.57-5.049-2.227-11.903-7.779-7.843m34.438 12.402c.009 1.98 4.308 7.49 7.237 9.275 3.432 2.093 10.21 2.692 11.259.995.34-.55-.036-1-.835-1-.8 0-2.899-1.35-4.665-3s-3.632-3-4.146-3-2.716-.909-4.894-2.02c-2.178-1.112-3.958-1.674-3.956-1.25m-51.303 2.902c-1.002 1.003-.866 4.148.209 4.812 1.756 1.086 4.199-.678 3.893-2.811-.303-2.113-2.781-3.322-4.102-2.001m91.799 1.771c-1.65.728-3.85 2.277-4.888 3.442-2.463 2.762-.705 5.155 3.788 5.155 7.403 0 10.643 5.609 9.858 17.064-.523 7.637-.51 7.691 2.892 11.403 4.191 4.573 10.118 5.701 16.325 3.108l3.915-1.636-3.425-1.719c-1.884-.946-4.486-3.295-5.782-5.22-2.188-3.248-2.313-4.147-1.731-12.5.524-7.524.334-9.571-1.162-12.48-3.626-7.051-12.264-9.939-19.79-6.617"/><path fill="#1976D2" fill-opacity=".272" fill-rule="evenodd" d="M0 128.004v128.004l128.25-.254 128.25-.254.254-127.75L257.008 0H0zm.485.496c0 70.4.119 99.053.265 63.672s.146-92.98 0-128S.485 58.1.485 128.5M75 68.5c0 .917.484 1.505 1.075 1.308s1.075-.785 1.075-1.308-.484-1.111-1.075-1.308S75 67.583 75 68.5m19.75 2.189c-.963.252-1.75.852-1.75 1.335 0 .482.787 1.32 1.75 1.862 1.58.889 1.425 1.321-1.589 4.439-4.251 4.397-11.584 8.399-16.968 9.26-3.637.582-4.193.429-4.193-1.153 0-1.511-.558-1.298-3.25 1.24-1.787 1.686-4.115 3.522-5.171 4.082-1.765.934-1.642 1.163 1.5 2.803 2.397 1.251 5.666 1.786 10.921 1.786 12.181.001 20.599-4.772 25.56-14.494 4.526-8.87 11.334-11.333 17.344-6.276 3.303 2.779 5.518 8.899 4.577 12.647-.726 2.892 2.98 19.028 5.121 22.296.883 1.347 3.156 3.408 5.053 4.58 4.73 2.923 15.278 2.416 18.588-.895l2.201-2.201h-3.321c-8.269 0-14.293-5.952-17.275-17.068-4.411-16.449-15.342-25.121-31.28-24.816-3.337.064-6.855.322-7.818.573m-14.903 4.355c-1.825 1.363-2.491 2.602-2.133 3.969.681 2.606 1.224 2.519 5.242-.836 5.172-4.317 2.322-7.188-3.109-3.133m31.372 4.697c-.704.245-2.351 2.56-3.66 5.143-2.943 5.808-10.203 12.629-16.322 15.335-2.538 1.123-7.365 2.262-10.727 2.532l-6.112.491-3.203 7.129c-3.913 8.708-4.197 14.524-.945 19.332 6.493 9.601 22.608 9.677 33.535.158 3.924-3.418 4.791-3.522 6.272-.754.969 1.81.657 2.598-2.215 5.588-1.838 1.914-5.001 4.335-7.029 5.381-3.176 1.637-3.779 2.516-4.353 6.341-.366 2.443-.319 5.003.106 5.689.424.686 1.044 7.513 1.379 15.171.703 16.105 1.058 16.723 9.591 16.723 7.065 0 8.288-1.556 8.666-11.025l.298-7.475 11.643-.281 11.642-.281.369 8.12c.438 9.651 1.545 10.942 9.382 10.942 7.593 0 8.253-1.135 8.729-15.007.217-6.321.963-13.356 1.658-15.633 1.507-4.934.117-13.408-2.831-17.268l-1.839-2.408-3.285 2.339c-6.59 4.692-16.466 3.654-23.762-2.497-5.416-4.567-7.308-9.537-8.355-21.946-.586-6.954-1.605-12.454-2.738-14.771-1.081-2.212-1.471-4.216-.974-5 1.138-1.794 1.072-7.545-.111-9.757-1.112-2.077-2.948-2.959-4.809-2.311m-16.996 28.816c-2.593 1.815-2.907 5.616-.652 7.872 4.018 4.017 10.964-.651 8.35-5.612-2.171-4.122-4.193-4.716-7.698-2.26m33.913 13.402c.567 1.628 2.795 4.553 4.95 6.5 3.387 3.059 4.599 3.541 8.917 3.541 2.748 0 4.997-.45 4.997-1s-.407-1-.905-1-2.791-1.575-5.095-3.5-4.986-3.5-5.96-3.5-2.914-.9-4.313-2c-3.406-2.68-3.808-2.531-2.591.959m-50.886 1.744c-1.709.634-1.582 3.956.177 4.631.785.301 1.984-.124 2.664-.944.991-1.194.956-1.755-.177-2.82-.778-.732-1.976-1.122-2.664-.867m90.25 2.139c-6.367 3.892-6.964 8.155-1.143 8.162 4.228.005 9.439 3.336 10.246 6.549.361 1.438.361 5.49.001 9.003-.807 7.882.885 12.552 5.586 15.418 3.678 2.243 9.781 2.629 14.661.928 3.942-1.374 3.972-2.318.123-3.913-1.664-.689-4.027-2.656-5.25-4.371-1.984-2.782-2.224-4.339-2.224-14.437v-11.319l-4.211-3.931c-3.803-3.55-4.724-3.931-9.5-3.927-3.367.002-6.379.67-8.289 1.838"/><path fill="#1976D2" fill-opacity=".873" fill-rule="evenodd" d="M68.571 57.571c-.864.865-1.571 1.703-1.571 1.863 0 .764 5.102 25.28 5.573 26.78 1.038 3.304 10.228.173 18.36-6.255l5.242-4.144-2.214-2.357-2.214-2.356 2.876-.801c5.234-1.457 15.763-.666 20.802 1.563 10.721 4.742 16 11.724 19.582 25.899 1.906 7.543 9.646 14.237 16.461 14.237 3.956 0 2.984 1.913-2.122 4.171-8.144 3.603-17.925.412-21.818-7.118-2.185-4.223-4.586-15.829-4.502-21.757.138-9.838-5.596-15.64-13.205-13.36-3.137.939-4.42 2.156-6.887 6.527-4.208 7.456-10.575 13.056-17.021 14.97-10.304 3.06-19.639 1.616-25.855-4-4.254-3.842-5.251-4.11-7.086-1.899-1.032 1.243-1.027 1.995.029 3.967 1.505 2.813 7.624 7.116 11.501 8.089 2.99.75 2.987.779-.9 9.91-4.324 10.156-3.094 18.06 3.896 25.051 4.794 4.793 13.063 7.953 19 7.259l3.309-.386.645 8.038c.355 4.421.961 13.236 1.347 19.59.786 12.945 1.887 15.622 7.527 18.299 7.003 3.322 16.763 1.285 20.841-4.351 1.03-1.423 1.986-4.869 2.221-8l.412-5.5 5.6-.3 5.6-.3.004 5.3c.002 3.55.67 6.393 2.022 8.61 5.055 8.291 20.277 8.218 26.399-.128 1.693-2.309 2.218-5.111 2.902-15.5.459-6.975.911-16.17 1.004-20.432.116-5.321.55-7.75 1.384-7.75 2.184 0 3.186 3.559 2.6 9.233-.803 7.787.269 12.224 3.976 16.445 8.253 9.4 22.064 9.739 31.424.771 6.445-6.176 5.765-10.449-1.662-10.449-1.531 0-4.029-.98-5.552-2.178-2.726-2.144-2.759-2.302-2.148-10.255.962-12.515-2.098-19.951-10.007-24.318-8.426-4.651-17.74-3.885-25.589 2.107-3.999 3.052-4.578 3.214-7.712 2.159l-3.388-1.141 3.921-2.007c4.812-2.462 10.648-10.63 10.221-14.303-.256-2.194-.732-2.522-3.299-2.274-10.64 1.027-12.289.786-15.471-2.262-1.992-1.908-3.644-4.951-4.616-8.5-3.814-13.923-10.239-22.163-21.341-27.369-5.667-2.657-7.5-3.014-15.5-3.015-6.326-.001-10.256.511-12.982 1.693l-3.91 1.695-7.202-5.516C75.517 58.482 71.796 56 71.21 56s-1.774.707-2.639 1.571M75 67.878c0 1.22.638 2.122 1.5 2.122.825 0 1.5-.395 1.5-.878 0-.482-.675-1.437-1.5-2.122-1.253-1.04-1.5-.896-1.5.878m4.59 7.028c-2.017 2.105-2.6 3.487-2.116 5.011.65 2.05.784 2.022 5.098-1.076 4.187-3.007 4.339-3.282 2.774-5.011-2.172-2.4-2.481-2.342-5.756 1.076m30.234 5.844c-.817.963-2.678 3.84-4.135 6.395-4.837 8.478-12.255 13.124-24.171 15.137l-7.548 1.275-3.137 6.471C63.294 125.583 69.686 137 85.933 137c7.07 0 11.85-1.724 16.778-6.051 3.751-3.293 6.554-3.529 7.118-.598.441 2.29-3.046 6.085-8.585 9.342-4.829 2.841-5.734 5.101-4.82 12.034.346 2.625.955 10.219 1.353 16.874.468 7.843 1.206 12.682 2.095 13.75.967 1.162 2.981 1.649 6.816 1.649 8.52 0 9.309-.785 9.327-9.285.009-3.968.383-7.793.831-8.501.603-.949 3.673-1.21 11.735-1l10.919.286.298 7.475c.386 9.666 1.531 11.025 9.286 11.025 8.276 0 8.916-.93 8.916-12.946 0-6.157.558-11.384 1.5-14.054 2.031-5.758 1.853-12.669-.453-17.5-3.273-6.859-3.535-7.055-6.148-4.62-7.981 7.435-23.156 3.444-29.199-7.68-2.353-4.331-2.953-7.028-3.755-16.86-.542-6.651-1.545-12.607-2.324-13.796-.916-1.397-1.205-3.822-.87-7.302.767-7.986-3.213-12.866-6.927-8.492m-16.758 29.126c-1.658 3.1-1.277 4.939 1.385 6.684 3.162 2.072 6.355 1.059 7.194-2.281.881-3.511-.725-5.717-4.429-6.087-2.258-.226-3.368.224-4.15 1.684M127 119.129c0 2.497 3.512 8.156 6.391 10.296 3.788 2.817 7.911 3.887 11.737 3.047 3.655-.803 3.645-1.909-.029-3.431-1.596-.661-3.924-2.291-5.175-3.621s-3.031-2.42-3.959-2.42-3.324-1.111-5.325-2.47c-2.002-1.358-3.64-1.989-3.64-1.401m41.5 5.697c-2.2 1.04-4.784 2.774-5.742 3.853-2.515 2.831-.236 5.665 4.816 5.988 2.513.161 4.655 1.109 6.358 2.814 2.411 2.414 2.568 3.175 2.568 12.476 0 9.606.089 9.997 2.952 12.99 5.09 5.318 14.029 6.078 20.016 1.7 1.837-1.343 1.818-1.42-.531-2.133-3.649-1.106-7.831-5.47-8.879-9.264-.583-2.112-.559-5.656.062-9.517.811-5.036.693-6.935-.654-10.46-3.216-8.422-12.829-12.295-20.966-8.447m-92 .174c-.837 1.354.292 3 2.059 3 .793 0 1.441-.9 1.441-2 0-2.07-2.413-2.76-3.5-1"/></svg>