<svg xmlns="http://www.w3.org/2000/svg" width="256" height="256"><path fill="#1976D2" fill-opacity=".016" fill-rule="evenodd" d="M0 128.004v128.004l128.25-.254 128.25-.254.254-127.75L257.008 0H0v128.004m.485.496c0 70.4.119 99.053.265 63.672.146-35.38.146-92.98 0-128C.604 29.153.485 58.1.485 128.5"/><path fill="#1976D2" fill-opacity=".319" fill-rule="evenodd" d="M106.437 1.559C59.822 9.395 19.956 44.242 5.692 89.619-5.18 124.208-.25 164.47 18.553 194.637c12.979 20.825 30.572 36.957 52.122 47.794 16.905 8.501 32.038 12.364 51.93 13.255 22.249.996 41.075-2.901 60.935-12.615 27.127-13.267 46.545-32.699 59.648-59.688C249.116 171.171 255 151.75 255 144.393c0-1.866.45-3.393 1-3.393.621 0 .994-5.406.985-14.25-.011-9.57-.334-13.757-.985-12.75-.738 1.142-.973.739-.985-1.685-.019-4.106-2.325-14.953-5.031-23.667-11.898-38.319-44.634-70.759-83.812-83.052-17.394-5.457-41.567-7.091-59.735-4.037m53.564 15.691c-1.803 3.438-5.691 10.592-8.64 15.9-2.948 5.307-5.361 9.948-5.361 10.312 0 1.593 10.302-5.126 11.107-7.244 1.458-3.834 1.055-4.353-2.107-2.718-4.576 2.366-3.512.349 1.38-2.617 4.899-2.97 7.198-7.433 3.009-5.841-3.493 1.328-2.926-.577.608-2.041 2.373-.983 3.31-2.294 4.5-6.303 1.815-6.111 1.804-5.698.142-5.698-.748 0-2.835 2.813-4.638 6.25M149 44.194c-4.146 2.134-6.162 3.979-8.189 7.496-1.479 2.565-4.024 5.708-5.654 6.984-1.631 1.277-4.358 4.424-6.061 6.995-5.413 8.172-3.693 19.054 3.802 24.061 1.869 1.249 4.483 2.27 5.809 2.27 1.353 0 2.14.439 1.793 1-.834 1.349-7.108 1.269-9.816-.125-1.201-.619-3.183-2.035-4.405-3.147l-2.221-2.022-2.006 2.397c-3.101 3.706-6.153 12.715-6.76 19.956-.758 9.038 1.833 20.969 7.123 32.803 5.143 11.507 6.306 15.029 7.144 21.642 1.93 15.241-8.664 36.009-22.162 43.444l-3.897 2.146 8.5-.588c14.997-1.037 26.111-4.997 33.98-12.107 6.757-6.104 7.08-9.552 2.901-30.899-3.079-15.727-3.11-15.785-10.556-20.14C132.2 142.778 124 134.983 124 132.743c0-.537 1.857.702 4.127 2.752 2.269 2.051 7.107 5.135 10.75 6.855 5.993 2.829 7.86 3.187 19.623 3.768 7.15.352 13.171.695 13.379.762.208.066 2.811 2.651 5.784 5.745 5.071 5.278 5.631 5.589 9.061 5.032 2.011-.326 4.552-1.489 5.648-2.584 1.988-1.988 1.985-1.992-2.227-2.666-3.248-.519-5.007-1.596-7.651-4.685-3.125-3.651-3.693-5.722-1.568-5.722.445 0 1.999 1.8 3.455 4 1.773 2.678 3.386 4.002 4.883 4.006 1.23.004 3.421.625 4.87 1.381 1.449.756 3.159 1.05 3.8.654 1.675-1.035 4.074-9.655 4.021-14.45-.069-6.282-1.756-8.846-10.955-16.652-4.675-3.967-10.975-9.581-14-12.475-3.025-2.893-7.356-6.187-9.624-7.319-2.269-1.131-5.345-3.507-6.836-5.28-1.491-1.772-4.601-4.42-6.91-5.885-3.954-2.507-4.381-2.577-7.309-1.19-4.407 2.087-9.566.896-12.808-2.956l-2.607-3.099 2.886-1.755c4.064-2.471 7.041-6.574 7.833-10.793.372-1.986 1.564-4.329 2.649-5.207 1.084-.878 2.759-3.674 3.723-6.212l1.752-4.616-3.332 1.589c-1.832.874-3.056 2.034-2.72 2.578.343.555.104.676-.542.276-2.092-1.292-1.214-2.593 3.201-4.737 3.54-1.72 4.756-3.063 6.489-7.165 1.173-2.777 2.025-5.112 1.894-5.189-.131-.077-2.714 1.133-5.739 2.69m3.561 18.006c-4.017 4.693-4.098 6.158-.362 6.604 2.787.333 3.557-.802 4.792-7.054.407-2.062.386-3.75-.047-3.75-.434 0-2.406 1.89-4.383 4.2m-17.891 3.989c-2.842 3.726-4.67 7.983-4.67 10.876 0 3.222 1.768 2.173 3.058-1.815.667-2.062 2.083-5.481 3.147-7.597 2.494-4.959 1.704-5.712-1.535-1.464m-23.17 9.38c-3.906 2.028-8.316 6.238-10.089 9.631-2.23 4.269-1.653 4.479 1.339.487 1.513-2.017 5.158-5.472 8.1-7.678 5.559-4.165 5.813-5.119.65-2.44m31.607 27.308c1.558 4.469 5.279 7.452 8.587 6.886 1.543-.264 3.534-.794 4.423-1.178 1.091-.47 2.658.343 4.812 2.497 4.332 4.333 5.731 2.791 3.331-3.673l-1.822-4.909-6.891-.212c-3.791-.117-8.231-.68-9.869-1.25-1.637-.571-3.111-1.038-3.275-1.038-.165 0 .152 1.295.704 2.877M.397 128c0 7.975.156 11.238.346 7.25.189-3.988.189-10.513 0-14.5-.19-3.987-.346-.725-.346 7.25m189.214 8.572c-.332.865-.114 2.489.485 3.608 1.479 2.764 3.368.804 2.512-2.607-.728-2.899-2.094-3.355-2.997-1.001m8.056-.905c-1.054 1.053-.776 6.333.333 6.333.55 0 1-1.575 1-3.5 0-3.597-.182-3.984-1.333-2.833M74.031 195.5c0 .55.436 1.675.969 2.5.533.825.969 1.05.969.5s-.436-1.675-.969-2.5c-.533-.825-.969-1.05-.969-.5"/><path fill="#1976D2" fill-opacity=".315" fill-rule="evenodd" d="M112.5 1.15C57.228 8.032 13.056 49.69 2.379 105c-1.713 8.874-1.959 33.61-.43 43.182 7.318 45.809 39.475 84.242 83.817 100.176 25.315 9.096 56.434 9.339 82.391.643 43.498-14.573 75.661-50.944 84.827-95.924 1.109-5.44 2.016-12.663 2.016-16.05 0-3.387.515-7.12 1.143-8.295.858-1.603.858-2.232 0-2.518-.696-.232-1.143-2.844-1.143-6.687 0-7.694-2.29-20.176-5.657-30.834-13.863-43.886-51.918-77.487-97.616-86.192C141.861.622 122.183-.056 112.5 1.15m50.311 10.6c-.824.963-4.345 7.15-7.825 13.75-10.659 20.22-16.034 28.793-21.184 33.792-5.513 5.351-8.747 11.481-8.78 16.642-.048 7.534 6.853 16.017 13.096 16.096 2.132.028 2.195.14.594 1.071-2.607 1.518-7.372.136-11.237-3.257l-3.376-2.964-2.937 4.055c-4.512 6.228-6.536 15.185-5.938 26.277.531 9.857 2.308 15.907 9.298 31.651 6.747 15.196 5.832 31.195-2.513 43.916-4.426 6.747-9.959 12.175-15.509 15.216l-4 2.191 10-.515c12.142-.626 20.94-3.217 29.324-8.636 11.812-7.634 12.521-12.474 6.049-41.288l-2.191-9.753-6.447-3.605C133.057 142.934 125 135.81 125 133.802c0-.525 1.407.451 3.126 2.17 6.939 6.939 21.482 11.82 31.656 10.624 9.326-1.096 13.096.643 20.612 9.51 2.092 2.467 8.296 2.472 11.5.009 2.954-2.271 2.019-4.115-2.085-4.115-2.228 0-3.999-.982-6.441-3.571-3.186-3.378-4.202-5.429-2.691-5.429.373 0 1.869 1.428 3.326 3.172 3.206 3.841 12.803 7.47 14.616 5.527 2.052-2.2 3.381-7.93 3.381-14.581v-6.583l-6.18-5.517c-3.4-3.035-10.334-9.455-15.41-14.268-5.076-4.813-9.975-8.75-10.885-8.75-.91 0-4.1-2.444-7.087-5.432-2.987-2.987-6.249-5.691-7.248-6.008-3.809-1.209-8.902-7.141-11.031-12.848-3.026-8.11-2.902-9.033 1.091-8.16 1.787.391 5.5 1.731 8.25 2.978 13.305 6.033 26.228 5.979 32.612-.137 3.903-3.74 3.666-5.082-.362-2.042-3.731 2.816-9.595 4.635-14.963 4.643-3.399.006-13.303-3.183-15-4.829-.393-.381-.075-2.486.706-4.678.78-2.193 1.419-5.112 1.418-6.487-.001-2.259-.513-1.945-5.309 3.25-3.292 3.567-6.123 5.75-7.455 5.75-2.601 0-2.807-1.576-.376-2.877.974-.522 2.608-3.35 3.632-6.286 1.023-2.935 3.095-8.037 4.604-11.337 1.508-3.3 3.516-8.25 4.462-11 .945-2.75 2.309-6.125 3.031-7.5.721-1.375 2.254-5.184 3.406-8.465 3.136-8.933 2.614-13.116-1.095-8.785m-54.049 42.192C96.478 57.869 85.26 68.065 79.196 80.813c-2.747 5.776-3.606 9.035-4.087 15.5-.604 8.125-.635 8.201-4.109 9.984-3.395 1.742-7.959 1.755-12.663.036-1.755-.642-1.753-.576.045 1.472C61.21 111.027 68.11 114 72.759 114c6.896 0 9.317 5.905 5.17 12.614-4.706 7.615-13.732 10.083-25.573 6.991-3.38-.883-6.487-1.605-6.905-1.605-1.702 0 3.268 4.267 8.483 7.282 4.821 2.787 6.502 3.218 12.566 3.218 7.848 0 13.504-2.287 19.25-7.783 3.894-3.726 4.029-3.187.797 3.19-7.102 14.016-20.958 18.144-42.047 12.527-1.517-.404-1.275.082 1 2.013 3.942 3.345 10.582 5.484 18 5.799 3.3.14 6.322.704 6.715 1.254 1.276 1.785 11.022.992 15.353-1.25 4.778-2.472 11.12-9.16 11.996-12.649.424-1.689-.525-4.879-3.058-10.275-6.849-14.593-8.856-21.854-8.796-31.826.088-14.657 3.884-25.019 12.505-34.134 7.337-7.758 15.403-10.195 26.538-8.02 3.685.72 4.17.617 3.638-.77-.338-.881-.096-2.227.539-2.991.88-1.062.848-1.514-.138-1.912-1.046-.422-1.04-.698.035-1.454.954-.67.25-1.11-2.5-1.565-6.275-1.036-11.49-.654-17.565 1.288m24.78 14.396c-1.412 2.409-2.529 5.855-2.514 7.75.026 3.116.255 2.848 2.637-3.088 1.435-3.575 3.052-7.062 3.594-7.75.66-.837.629-1.25-.094-1.25-.595 0-2.225 1.952-3.623 4.338M112.5 72.387c-6.408 3.035-10.682 7.588-14.185 15.113-2.439 5.239-2.782 7.142-2.707 15 .065 6.854.635 10.422 2.39 14.962l2.305 5.962 1.748-8.636c2.059-10.172 9.164-25.468 14.84-31.948 2.677-3.057 3.966-5.596 4.36-8.59.507-3.86.361-4.249-1.596-4.24-1.185.005-4.405 1.075-7.155 2.377M174 83.605c-6.991 2.5-13.465 2.983-18.94 1.412-4.588-1.316-5.014-.567-.903 1.585 6.08 3.182 18.367 1.345 24.971-3.733 1.305-1.004 2.147-1.771 1.872-1.706-.275.065-3.425 1.164-7 2.442m-10.303 11.274c4.594 4.158 16.92 8.572 22.016 7.885l2.787-.375-3-.775c-9.175-2.367-14.226-4.282-19.197-7.275-3.05-1.836-5.828-3.321-6.174-3.298-.346.023 1.259 1.75 3.568 3.838m-20.693 6.336c.007 2.666 3.902 7.545 6.555 8.21 1.534.386 4.027.161 5.643-.509 2.609-1.08 3.166-.938 5.651 1.443 4.286 4.106 5.396 3.407 3.35-2.109l-1.762-4.75-7.693-.7c-4.232-.385-8.606-1.189-9.721-1.785-1.547-.829-2.026-.781-2.023.2M190 137.941c0 1.962 1.691 3.702 2.658 2.734.785-.785-.65-4.675-1.725-4.675-.513 0-.933.873-.933 1.941m7.75-1.369c-.412.419-.75 1.901-.75 3.295 0 1.82.305 2.228 1.085 1.448.596-.596.934-2.079.75-3.295-.184-1.215-.673-1.867-1.085-1.448M59.618 170.611c2.133 3.64 2.691 5.844 2.647 10.462-.095 10.17-5.279 15.557-16.036 16.667l-5.707.589 3.489 1.259c1.919.693 3.039 1.301 2.489 1.351-.55.05-.325.528.5 1.061 2.323 1.501 12.65 1.173 16.728-.531 2.016-.842 5.151-2.665 6.968-4.051l3.304-2.52v4.339c0 5.17-3.398 12.344-7.136 15.064-1.449 1.056-4.74 2.156-7.313 2.446-7.655.863-3.684 2.611 6.992 3.078 7.347.321 10.558.026 13.996-1.287 4.333-1.655 4.461-1.828 4.461-6.037 0-2.384-.437-4.484-.971-4.668-.584-.2-.402-1.928.456-4.333 2.889-8.095 1.393-18.689-3.591-25.43C76.907 172.678 65.298 166 59.911 166h-2.995l2.702 4.611m24.946 10.682c.376.986.935 1.541 1.243 1.233.308-.307.001-1.114-.683-1.793-.988-.98-1.102-.865-.56.56"/><path fill="#1976D2" fill-opacity=".428" fill-rule="evenodd" d="M170.158 17.75c-1.035 2.063-4.713 10.864-8.174 19.56-4.107 10.319-6.576 15.355-7.11 14.5-1.42-2.276-3.892.322-5.869 6.169-1.019 3.014-2.775 6.226-3.902 7.139-2.044 1.655-2.043 1.66.428 2.133 1.98.378 2.891-.197 4.543-2.871 1.137-1.839 3.385-4.283 4.997-5.43L158 56.864v2.6c0 1.43-.681 4.23-1.513 6.222-.832 1.991-1.277 3.857-.989 4.145.867.867 13.927 5.078 14.371 4.634.226-.227-1.29-2.296-3.371-4.598-3.507-3.883-3.653-4.28-2.011-5.481 1.857-1.358 5.428-13.315 10.117-33.876 2.112-9.263 2.428-12.143 1.547-14.078-1.591-3.492-3.825-3.001-5.993 1.318m-35.433 49.002c-2.02 2.232-3.745 6.747-3.655 9.563.053 1.615.416 1.247 1.394-1.409.728-1.977 2.058-5.014 2.955-6.75 1.839-3.556 1.632-3.975-.694-1.404m-19.399.374c-5.925 1.056-9.312 3.05-14.217 8.372-8.167 8.86-11.208 20.332-9.101 34.34.716 4.764 1.647 9.354 2.069 10.2.572 1.148.17 1.588-1.585 1.733-1.294.107-2.543-.36-2.776-1.038-.233-.678-.232-.108.004 1.267.634 3.702 9.27 21.744 13.163 27.499 9.768 14.438 11.482 24.003 6.275 35.001-1.563 3.3-3.588 6.618-4.5 7.372-1.492 1.236-1.658 1.006-1.658-2.299 0-2.02-.707-5.04-1.572-6.712-1.47-2.843-1.689-2.935-3.367-1.417-1.676 1.518-1.994 1.397-4.84-1.845-1.675-1.908-4.773-4.344-6.883-5.413C82.277 172.129 67.252 166 66.269 166c-.318 0 2.206 1.8 5.61 4 3.404 2.2 6.639 4 7.19 4 .551 0 2.091.714 3.422 1.586 1.332.873 2.873 1.307 3.425.966 1.499-.926 8.986 6.277 10.641 10.238 1.741 4.169 1.861 11.082.282 16.352-1.593 5.319-6.589 10.852-12.98 14.378-4.895 2.7-6.199 2.957-15.07 2.968l-9.712.012 4.212 4.31c5.641 5.775 18.095 13.984 22.453 14.801 5.558 1.043 17.881-.393 23.271-2.712 3.011-1.295 6.299-3.794 8.456-6.426 4.242-5.177 9.029-7.112 19.795-8.004 13.554-1.122 22.585-7.12 26.216-17.413 1.948-5.52 1.922-10.546-.097-18.58-2.226-8.863-1.265-14.794 3.107-19.166 4.646-4.646 8.916-4.56 13.564.275 1.895 1.972 5.471 4.784 7.946 6.25 8.83 5.229 21.195 2.664 28.395-5.892 2.962-3.521 3.247-6.189 1.099-10.307-.822-1.576-1.494-3.083-1.494-3.351 0-.268 2.025-.325 4.5-.128 2.475.196 4.5.208 4.5.026 0-.735-11.853-12.711-17-17.176l-5.5-4.772v5.633c0 7.107-2.929 15.132-5.524 15.132-1.022 0-2.136-.45-2.476-1-.34-.55-1.941-1-3.559-1-2.956 0-5.143-1.594-8.229-6-.916-1.309-1.889-2.156-2.163-1.883-.273.273.631 2.156 2.009 4.183 1.962 2.887 3.37 3.825 6.496 4.325 5.026.803 5.907 2.179 2.935 4.585-1.687 1.366-3.581 1.804-6.876 1.588-3.932-.258-4.863-.771-6.892-3.798-3.725-5.556-7.084-6.704-21.051-7.188-12.037-.417-12.318-.378-11.846 1.631.266 1.131 1.686 7.007 3.155 13.057 1.469 6.05 2.924 15.411 3.232 20.803l.561 9.802-4.981 4.802c-8.71 8.395-21.839 13.059-36.791 13.069l-8 .005 5.115-2.933c10.414-5.973 18.765-19.016 20.645-32.245.906-6.376.767-8.369-1.101-15.703-1.176-4.62-3.446-11.145-5.044-14.5-10.202-21.415-10.067-42.764.354-56.031 1.495-1.904 1.549-1.902 3.774.125 3.425 3.12 6.285 4.32 9.941 4.17 2.739-.113 2.883-.217.829-.601-3.474-.649-7.865-3.972-10.108-7.652-1.044-1.711-1.899-2.548-1.901-1.861-.002.688-.52 1.138-1.15 1-1.93-.421-8.789 9.426-10.623 15.25-1.086 3.453-2.289 5.5-3.231 5.5-2.192 0-2.463 9.69-.506 18.143.873 3.771 4.043 12.391 7.044 19.156 6.935 15.627 7.738 18.965 7.311 30.373-.297 7.925-.814 10.306-3.44 15.828-1.699 3.575-4.383 8.029-5.963 9.899-3.025 3.577-10.104 9.101-11.663 9.101-2.025 0 .801-4.833 6.225-10.649 6.663-7.144 8.992-12.818 8.992-21.903 0-7.689-1.517-12.067-7.955-22.968-11.251-19.049-13.837-25.61-14.966-37.98-.993-10.882.107-20.789 2.989-26.921 4.025-8.563 12.585-15.429 21.182-16.989 2.063-.374 3.75-1.058 3.75-1.519 0-1.351-3.188-1.744-7.674-.945m71.42 5.421c-8.557 10.056-26.969 10.012-40.219-.095-1.97-1.502-3.84-2.472-4.156-2.156-.316.315 1.159 4.091 3.277 8.389 2.754 5.587 4.802 8.385 7.182 9.815 1.832 1.1 5.71 4.314 8.619 7.141 2.91 2.828 6.361 5.48 7.67 5.894 1.31.414 6.506 4.654 11.548 9.423 5.041 4.769 11.594 10.543 14.56 12.832 5.149 3.972 5.629 4.133 10.571 3.548l5.177-.614-2.532-4.612c-1.393-2.537-5.379-7.753-8.859-11.592-5.802-6.402-6.473-6.857-8.109-5.5-2.116 1.757-13.8 2.055-15.46.395-.78-.78.4-.968 4.2-.667 2.907.23 6.41-.041 7.785-.602 2.184-.89 1.849-1.027-2.645-1.083-8.386-.103-17.845-3.553-22.496-8.204-4.182-4.182-4.57-5.845-.907-3.884 1.306.698 3.873.874 6.665.455 4.233-.635 4.791-.445 8.212 2.795 5.454 5.164 8.26 6.775 11.808 6.775 2.756 0 3.614-.687 6.29-5.036 1.705-2.77 3.768-5.294 4.586-5.607 2.459-.944 1.712-3.308-2.759-8.718-6.829-8.267-6.484-8.058-8.127-4.919-2.223 4.244-7.601 8.945-12.921 11.295-3.855 1.703-5.914 1.995-10.5 1.489-9.494-1.046-10.802-1.48-14.066-4.671-5.103-4.99-4.062-6.054 3.11-3.179 8.398 3.366 16.64 3.505 22.75.384 6.862-3.506 9.879-5.903 11.589-9.21 2.107-4.075 1.469-4.173-1.843-.281M86.232 104c0 1.925.206 2.713.457 1.75.252-.963.252-2.537 0-3.5-.251-.963-.457-.175-.457 1.75m57.89-.079c.599 1.717 1.911 3.562 2.917 4.1 2.52 1.348 7.312 1.228 8.759-.219.931-.931 1.976-.444 4.685 2.182 1.918 1.858 3.766 3.101 4.106 2.76.341-.34-.026-2.56-.815-4.931l-1.434-4.313-7.92-.638c-4.356-.35-8.7-.958-9.653-1.35-1.549-.637-1.618-.382-.645 2.409m-34.689 6.394c-.278.724-.067 2.411.468 3.75.895 2.243.977 2.139 1.036-1.315.064-3.795-.582-4.84-1.504-2.435m-47.72 2.701c4.571 7.219 12.753 13.787 15.745 12.638.703-.269 1.484-1.57 1.736-2.891.836-4.371-.525-5.992-6.261-7.453-2.988-.761-7.18-2.291-9.314-3.399l-3.882-2.016 1.976 3.121m25.457-.516c-.016 1.1.357 2.9.83 4 1.095 2.548 1.095-.081 0-3.5-.644-2.01-.806-2.108-.83-.5m41.33 25.406c2.758 3.003 6.5 5.737 6.5 4.75 0-.228-2.137-2.125-4.75-4.216-4.574-3.66-4.639-3.68-1.75-.534m61.5.035c0 1.99 1.304 3.422 2.252 2.474.784-.784-.341-4.415-1.369-4.415-.485 0-.883.873-.883 1.941m7.667-1.274c-.367.366-.638 1.604-.604 2.75.059 1.915.141 1.89 1.022-.312.979-2.448.776-3.633-.418-2.438M51 138.93c0 1.111 3.209 5.475 6.852 9.32 3.041 3.209 4.179 3.75 7.883 3.75 2.381 0 5.825-.625 7.652-1.388 3.253-1.36 11.149-8.409 10.333-9.225-.227-.227-2.167.32-4.311 1.216-5.608 2.343-16.719 1.488-23.356-1.797-2.779-1.375-5.053-2.219-5.053-1.876m-4.328 16.32C51.121 161.318 55.35 166 56.38 166c1.323 0 7.272-5.742 6.547-6.32-.235-.187-3.47-1.143-7.189-2.124-3.718-.982-7.007-2.183-7.309-2.67-.301-.487-1.026-.886-1.61-.886-.673 0-.727.459-.147 1.25m24.267 42.323c-2.997 3.612-9.267 5.805-16.689 5.839-3.987.018-7.25.14-7.25.271 0 .481 9.384 11.836 10.279 12.439.508.342 2.466.274 4.351-.151 6.073-1.37 9.818-5.43 11.318-12.27 1.695-7.733 1.024-9.782-2.009-6.128m16.289 28.677c-1.129 3.438-1.9 6.404-1.715 6.591.641.651 4.335-.933 6.925-2.971 1.431-1.125 3.33-3.469 4.219-5.208 1.608-3.145 1.606-3.152-.401-1.365-1.784 1.589-2.191 1.626-3.501.315-1.062-1.062-1.79-1.177-2.563-.404-.773.773-.921.471-.519-1.064 1.228-4.697-.518-1.766-2.445 4.106"/></svg>