<svg xmlns="http://www.w3.org/2000/svg" width="256" height="256"><path fill="#1976D2" fill-opacity=".016" fill-rule="evenodd" d="M0 128.004v128.004l128.25-.254 128.25-.254.254-127.75L257.008 0H0zm.485.496c0 70.4.119 99.053.265 63.672s.146-92.98 0-128S.485 58.1.485 128.5"/><path fill="#1976D2" fill-opacity=".147" fill-rule="evenodd" d="M0 128.011v108.997l128.25-.254 128.25-.254.254-109 .255-109-128.505.258L0 19.015zM.483 128c0 60.225.12 84.862.267 54.75.147-30.113.147-79.388 0-109.5C.603 43.137.483 67.775.483 128m36.872-90.517c.355.924.645 2.374.645 3.221 0 1.256.277 1.311 1.5.296 1.999-1.659 1.897-2.271-.645-3.858-1.899-1.187-2.071-1.148-1.5.341M72.5 42.11c-2.75.556-5.365 1.37-5.81 1.81-.446.441.667 2.044 2.473 3.564l3.284 2.763-3.973 3.455C55.982 64.563 47.856 68.999 37.649 70.53c-4.34.651-4.823.521-5.333-1.43-.523-1.998-.891-1.836-5.4 2.381-2.661 2.49-5.967 5.041-7.346 5.669-8.62 3.928 15.355 8.693 29.646 5.892 12.827-2.514 22.618-9.23 28.69-19.68 6.655-11.453 8.142-13.346 12.055-15.342 10.776-5.497 22.118 1.037 25.125 14.475.872 3.894.91 6.48.141 9.509-.824 3.246-.74 4.918.383 7.606.792 1.895 2.319 7.816 3.394 13.157 2.192 10.899 5.004 15.892 11.524 20.461 8.564 6.002 22.531 6.025 30.341.05l3.631-2.778-5.5-.636c-6.657-.769-8.267-1.365-13.79-5.108-6.272-4.25-10.618-11.595-13.604-22.992-2.93-11.181-4.9-15.426-10.374-22.351C110.797 46.212 89.548 38.667 72.5 42.11m-27.297 7.643c-3.85 3.358-4.228 4.077-3.639 6.923l.657 3.177 3.678-2.677a255 255 0 0 0 6.618-4.999l2.94-2.324-2.479-1.904c-1.363-1.048-2.703-1.913-2.978-1.924s-2.433 1.667-4.797 3.728m49.239 8.65c-1.102.772-3.537 4.484-5.411 8.25C80.749 83.295 61.438 95 42.265 95c-5.972 0-6.371.149-7.346 2.75-.568 1.513-2.805 6.613-4.972 11.334-6.251 13.62-6.249 21.058.008 29.695 6.038 8.335 17.125 12.053 30.349 10.178 9.044-1.283 13.788-3.453 21.402-9.791 3.414-2.841 7.116-5.166 8.227-5.166 2.766 0 5.434 4.266 4.505 7.201-1.071 3.386-9.889 11.391-15.438 14.015-2.656 1.256-5.317 3.318-5.914 4.581-1.57 3.32-1.334 16.069.403 21.794 1.047 3.449 1.493 9.607 1.5 20.709.011 16.4.893 20.673 4.556 22.079.89.341 5.357.621 9.926.621 12.476 0 12.898-.513 13.529-16.45.386-9.738.843-12.844 2-13.574.825-.52 8.968-.952 18.095-.961 20.816-.019 19.905-.691 19.905 14.679 0 9.651.26 11.367 2.073 13.671 1.96 2.492 2.553 2.635 10.918 2.635 4.865 0 9.574-.28 10.464-.621 3.671-1.409 4.545-5.671 4.545-22.173 0-13.541.308-16.767 2.081-21.799 2.882-8.179 2.264-19.687-1.482-27.607-3.831-8.097-4.725-8.578-9.303-5.008-5.115 3.99-9.256 5.208-17.695 5.207-17.104-.002-32.129-14.056-34.692-32.449-.463-3.328-1.274-11.778-1.801-18.778-.809-10.741-1.369-13.481-3.584-17.551-2.2-4.041-2.455-5.272-1.575-7.587 1.401-3.685 1.337-12.229-.112-14.95-1.297-2.434-3.798-4.604-5.364-4.652-.566-.018-1.929.599-3.031 1.371M70 101.685c-.825.313-2.513 1.491-3.75 2.617-2.444 2.224-3.029 7.374-1.22 10.753 1.496 2.795 6.503 5.1 9.464 4.357 3.258-.818 7.506-5.896 7.506-8.973 0-4.841-7.634-10.41-12-8.754m52 20.344c0 3.059 4.469 10.214 8.711 13.948 6.364 5.601 14.314 7.485 20.947 4.963l2.789-1.06-4.075-1.825c-2.241-1.003-5.685-3.434-7.653-5.403-1.969-1.968-4.848-3.884-6.399-4.257-3.562-.857-10.279-4.153-12.57-6.166-1.363-1.199-1.75-1.243-1.75-.2M39.2 129.2c-2.69 2.69-.596 6.8 3.465 6.8 2.963 0 4.789-3.284 3.335-6-1.187-2.218-4.941-2.659-6.8-.8m148.8 1.879c-2.475 1.119-5.946 3.431-7.712 5.137-3.166 3.058-3.188 3.144-1.535 5.944 1.477 2.499 2.26 2.84 6.528 2.84 5.566 0 7.911 1.001 12.488 5.335 4.66 4.411 5.632 8.997 4.142 19.529-.674 4.758-.919 10.281-.545 12.275.941 5.015 5.834 11.412 10.581 13.834 5.565 2.839 16.433 2.799 22.564-.083 2.469-1.161 4.489-2.289 4.489-2.508s-1.807-1.121-4.016-2.005c-5.207-2.083-11.381-9.153-12.979-14.86-.761-2.716-1.009-6.588-.627-9.76 1.898-15.724 1.91-17.715.136-22.36-2.276-5.958-6.962-11.241-12.005-13.532-5.579-2.534-15.653-2.434-21.509.214"/><path fill="#1976D2" fill-opacity=".486" fill-rule="evenodd" d="M0 128.011v108.997l128.25-.254 128.25-.254.254-109 .255-109-128.505.258L0 19.015zM.483 128c0 60.225.12 84.862.267 54.75.147-30.113.147-79.388 0-109.5C.603 43.137.483 67.775.483 128m36.532-90.25c.009.962.386 2.334.839 3.047.657 1.037 1.081.986 2.107-.25s1.034-1.848.039-3.047c-1.667-2.008-3.003-1.896-2.985.25m34.343 4.204c-7.048 1.681-7.191 1.899-3.358 5.14l3.5 2.958-6.432 5.932c-8.921 8.227-18.207 12.937-28.315 14.361-3.368.475-3.811.273-4.38-1.993l-.632-2.521-4.621 4.489c-2.541 2.47-6.139 5.395-7.996 6.501l-3.375 2.01 4.375 2.335C24.11 83.292 25.748 83.5 38.5 83.5c13.662 0 14.162-.077 20.723-3.185 8.786-4.162 15.465-10.537 20.322-19.397 8.582-15.657 20.496-19.256 29.768-8.993 4.568 5.056 6.008 9.784 5.458 17.924-.265 3.934.063 8.135.804 10.282.689 1.997 1.939 7.272 2.778 11.722 1.978 10.486 3.839 14.235 9.667 19.475 9.263 8.328 22.747 9.125 33.398 1.975l4.082-2.74-5.673-.736c-7.496-.972-11.727-2.838-16.772-7.396-5.783-5.225-8.453-10.315-11.503-21.931-1.448-5.515-4.067-12.401-5.839-15.354C119 53.96 106.152 44.861 93.201 42.121c-5.867-1.241-16.982-1.326-21.843-.167M44.75 49.398c-2.385 2.108-3.744 4.185-3.735 5.708.033 5.054 1.328 5.103 7.795.297 3.405-2.529 6.19-4.98 6.19-5.444 0-1.053-4.081-3.974-5.473-3.917-.565.023-2.714 1.533-4.777 3.356m48.606 9.807c-1.143 1.262-3.558 5.116-5.366 8.563-4.077 7.773-12.284 16.044-20 20.157-7.219 3.848-19.444 7.07-26.9 7.09l-5.59.016-2.856 6.734c-1.571 3.704-3.981 9.396-5.356 12.649-3.466 8.199-2.987 16.708 1.284 22.784 7.148 10.171 16.615 13.874 30.928 12.096 9.665-1.201 15.539-3.851 22.994-10.374 6.004-5.254 6.578-5.487 9.572-3.885 1.316.705 1.934 2.096 1.934 4.355 0 2.714-.973 4.24-5.333 8.363-2.933 2.774-7.65 6.218-10.483 7.654-3.674 1.862-5.37 3.395-5.917 5.351-1.306 4.669-.656 17.457 1.099 21.614C74.66 185.439 75 189.745 75 203.066c0 16.341.069 16.903 2.413 19.628 2.319 2.695 2.776 2.806 11.587 2.806s9.268-.111 11.587-2.806c2.245-2.611 2.413-3.597 2.413-14.193 0-15.027-.733-14.501 20.223-14.501 20.385 0 19.777-.471 19.777 15.311 0 9.981.239 11.568 2.028 13.488 2.687 2.885 5.583 3.505 14.107 3.024 6.27-.355 7.386-.728 9.486-3.168 2.294-2.668 2.379-3.346 2.379-18.995 0-13.666.316-17.128 2-21.92 3.842-10.931 2.205-25.435-3.818-33.833l-2.577-3.592-4.154 3.171c-5.485 4.187-11.939 5.909-19.781 5.28-20.274-1.628-33.613-19.326-33.69-44.7-.031-10.492-1.787-20.061-4.543-24.764-2.119-3.615-2.328-4.638-1.33-6.502 2.081-3.889 1.68-13.255-.706-16.471-2.719-3.665-6.337-4.115-9.045-1.124m-26.901 45.25c-3.388 3.388-3.312 8.416.181 11.909C72.127 121.854 81 118.232 81 110.5c0-2.479-.76-4.351-2.455-6.045C76.851 102.76 74.979 102 72.5 102s-4.351.76-6.045 2.455m55.113 17.823c3.594 11.656 12.968 19.707 22.932 19.699 9.043-.008 12.182-1.846 6.52-3.82-1.638-.571-5.126-3.029-7.75-5.461-3.083-2.86-6.08-4.661-8.474-5.096-2.037-.37-6.001-2.219-8.808-4.108-4.673-3.145-5.047-3.248-4.42-1.214m-82.705 8.124c-.903 1.982-.87 2.885.152 4.117 2.811 3.386 8.704-.558 6.378-4.269-1.786-2.848-5.2-2.768-6.53.152m151.264-.481c-3.295 1.137-6.927 3.408-9.388 5.869l-4.014 4.015 2.052 2.882c1.754 2.464 2.609 2.833 5.888 2.544 5.039-.444 12.074 3.159 15.168 7.769 2.268 3.377 2.327 3.956 1.678 16.5-.744 14.397-.337 16.351 4.57 21.94 4.878 5.555 8.298 6.962 16.919 6.958 5.762-.002 8.469-.509 11.682-2.186 5.358-2.797 5.945-3.836 2.552-4.516-4.61-.924-10.805-6.178-13.256-11.242-2.511-5.186-2.747-8.855-1.493-23.177.668-7.624.516-9.987-.876-13.631-2.36-6.179-8.909-12.361-15.017-14.174-6.437-1.912-9.902-1.818-16.465.449"/><path fill="#1976D2" fill-opacity=".873" fill-rule="evenodd" d="M27.762 20.073c-3.943 2.298-3.964 4.172-.25 22.663C33.387 71.989 32.758 70 36.131 70c7.788 0 19.864-6.138 30.317-15.408l4.948-4.388-3.198-2.691C66.439 46.033 65 44.466 65 44.03c0-2.651 21.001-4.018 29.972-1.951 12.695 2.926 25.577 12.877 31.758 24.534 1.776 3.35 4.34 10.24 5.697 15.311s3.607 11.165 5 13.542c4.619 7.882 12.389 12.782 22.357 14.102 5.204.688 5.257.729 3.5 2.711-5.331 6.01-20.75 8.106-28.9 3.927-9.625-4.934-14.392-11.97-16.404-24.206-.678-4.125-1.687-8.625-2.243-10s-1.061-6.775-1.124-12c-.098-8.148-.47-10.135-2.614-13.961C108.508 49.806 104.007 47 97.502 47c-7.365 0-11.963 3.543-16.975 13.081-9.174 17.458-24.844 25.886-45.729 24.593-10.433-.645-15.371-2.63-22.445-9.023C9.522 73.093 6.33 71 5.258 71 2.926 71 0 73.985 0 76.364c0 4.59 10.193 13.211 19.132 16.18 5.692 1.89 5.682 1.478.326 13.183-8.145 17.802-6.792 30.695 4.47 42.604 8.104 8.568 20.922 13.504 32.261 12.422l4.689-.448-.069 9.098c-.047 6.104.467 10.537 1.561 13.473 1.263 3.39 1.63 8.072 1.63 20.782 0 17.481.779 21.332 5.298 26.176 7.675 8.228 28.238 9.635 36.705 2.51 5.482-4.613 7.212-8.718 7.766-18.422l.508-8.922H132l.006 6.75c.007 9.01 1.425 13.615 5.624 18.262 5.024 5.562 10.421 7.341 20.637 6.805 10.603-.557 15.852-3.217 20.192-10.234 3.017-4.878 3.046-5.058 3.637-23 .424-12.829 1.077-19.509 2.25-22.992 1.797-5.333 2.126-14.853.722-20.898-.814-3.508-.721-3.784 1.174-3.5 1.132.169 2.958 1.517 4.058 2.997 1.818 2.444 1.895 3.212.85 8.416-4.048 20.156 4.459 35.736 22.351 40.937 12.484 3.63 26.252-.409 35.909-10.534 3.018-3.165 5.789-6.954 6.157-8.421.943-3.756-1.836-6.586-6.472-6.594-5.77-.009-10.493-1.756-13.652-5.052-3.227-3.367-3.099-2.011-2.299-24.442.329-9.243.15-10.417-2.358-15.5-4.142-8.392-8.14-12.557-15.556-16.205-6.224-3.061-7.409-3.295-16.715-3.295-8.858 0-10.65.312-15.515 2.701-3.025 1.486-7.235 4.478-9.354 6.65l-3.855 3.947-5.993-2.024-5.994-2.024 5.348-2.923c7.453-4.074 11.409-8.226 15.361-16.125 2.882-5.761 3.231-7.169 2.292-9.231-1.5-3.291-3.669-3.783-8.764-1.985-5.321 1.877-13.062 1.95-17.339.163-4.868-2.034-9.433-7.881-11.245-14.403-5.635-20.283-9.109-26.845-19.306-36.464-7.653-7.22-16.046-11.84-26.125-14.38-9.14-2.305-27.044-1.528-36.196 1.569l-6.669 2.258-11.3-8.615c-11.375-8.671-12.918-9.394-16.099-7.541m8.631 16.509c.334.87.607 2.445.607 3.5 0 2.284 2.253 2.523 3.995.424 1.019-1.228.818-1.847-1.127-3.467-2.88-2.399-4.291-2.585-3.475-.457m8.426 12.689c-4.171 3.769-4.621 4.583-4.136 7.479.299 1.788 1.015 3.25 1.59 3.25s3.541-1.913 6.591-4.25 6.016-4.581 6.591-4.986c.643-.453-.11-1.69-1.955-3.214-1.65-1.363-3.225-2.485-3.5-2.493s-2.606 1.887-5.181 4.214m50.212 8.044c-1.298.656-4.285 4.753-6.696 9.185-5.101 9.377-12.855 17.219-21.178 21.421-7.224 3.646-12.4 5.073-23.565 6.494l-8.908 1.134-1.334 3.855c-.734 2.12-2.958 7.23-4.942 11.355-3.347 6.958-3.582 8.051-3.248 15.121.312 6.605.781 8.228 3.52 12.184 5.795 8.369 13.502 11.921 25.888 11.93 11.585.01 18.17-2.713 30.309-12.529 3.989-3.226 4.565-3.416 6.5-2.139 1.168.77 2.263 2.567 2.435 3.992.444 3.688-6.328 10.695-14.351 14.849-4.741 2.455-6.702 4.097-7.448 6.232-1.48 4.237-1.237 14.544.476 20.192 1.043 3.438 1.493 9.585 1.5 20.51C74.005 224.175 75.123 226 89.242 226c13.023 0 14.885-2.478 14.489-19.278-.184-7.782.075-9.974 1.269-10.735 2.28-1.454 34.324-1.263 35.8.213.779.779 1.2 4.833 1.2 11.55 0 15.899 1.853 18.25 14.387 18.25 14.342 0 15.613-2.017 15.613-24.779 0-12.88.331-16.727 1.706-19.849 1.196-2.714 1.706-6.565 1.705-12.872-.002-7.553-.414-9.884-2.561-14.5-1.407-3.025-3.47-6.607-4.583-7.96l-2.025-2.46-3.535 3.104c-4.793 4.208-9.864 5.787-18.288 5.695-13.23-.145-24.664-8.027-30.584-21.083-2.647-5.839-3.136-8.502-4.386-23.915-1.346-16.588-2.44-21.531-5.714-25.816-1.304-1.707-1.304-2.351-.001-5.47 3.941-9.434-1.969-22.187-8.703-18.78M67.356 104.37c-2.099 1.806-2.756 3.267-2.756 6.13 0 8.618 11.766 11.576 15.29 3.843.61-1.341 1.11-3.07 1.11-3.843 0-2.725-2.248-6.292-4.657-7.39-3.674-1.674-5.947-1.355-8.987 1.26M121 121.54c0 5.103 7.881 15.275 14.5 18.714 5.166 2.684 15.638 3.036 18.067.607 1.518-1.518 1.362-1.729-2.119-2.878-2.067-.682-5.613-3.095-7.881-5.362-2.808-2.807-5.939-4.693-9.819-5.914-3.133-.986-7.011-2.899-8.617-4.25-3.401-2.862-4.131-3.024-4.131-.917m-80.8 7.66c-1.711 1.711-1.484 5.477.372 6.189 4.198 1.611 7.422-4.252 3.494-6.354-2.411-1.29-2.411-1.29-3.866.165m149.548.227c-4.464 1.593-10.302 5.871-11.78 8.633-.806 1.506-.654 2.664.639 4.852 1.523 2.578 2.329 2.915 7.82 3.264 7.359.469 10.675 2.568 13.694 8.67 1.881 3.801 2.046 5.18 1.322 11-1.39 11.161-1.008 17.238 1.373 21.846 4.112 7.96 12.211 11.901 22.722 11.057 5.652-.454 14.462-3.946 14.462-5.732 0-.338-1.605-1.196-3.566-1.905-4.936-1.785-10.4-6.829-12.569-11.603-2.105-4.635-2.316-10.398-.761-20.853 1.545-10.386-.419-17.074-6.913-23.54-6.858-6.829-17.084-9.029-26.443-5.689"/></svg>